<?xml version="1.0" encoding="UTF-8" standalone="no"?>
<!-- Created with Inkscape (http://www.inkscape.org/) -->

<svg
   version="1.1"
   id="svg2"
   width="32"
   height="32"
   viewBox="0 0 32 32"
   sodipodi:docname="download.svg"
   xml:space="preserve"
   inkscape:version="1.2.2 (b0a8486541, 2022-12-01)"
   xmlns:inkscape="http://www.inkscape.org/namespaces/inkscape"
   xmlns:sodipodi="http://sodipodi.sourceforge.net/DTD/sodipodi-0.dtd"
   xmlns="http://www.w3.org/2000/svg"
   xmlns:svg="http://www.w3.org/2000/svg"><defs
     id="defs6"><inkscape:path-effect
       effect="fillet_chamfer"
       id="path-effect531"
       is_visible="true"
       lpeversion="1"
       nodesatellites_param="F,0,0,1,0,0,0,1 @ F,0,0,1,0,0,0,1 @ F,0,0,1,0,0,0,1 @ F,0,0,1,0,0,0,1 @ F,0,0,1,0,0,0,1 @ F,0,0,1,0,2,0,1 @ F,0,0,1,0,0,0,1 @ F,0,0,1,0,0,0,1 @ F,0,0,1,0,0,0,1 @ F,0,0,1,0,0,0,1 @ F,0,0,1,0,0,0,1 @ F,0,0,1,0,0,0,1 @ F,0,0,1,0,0,0,1 @ F,0,0,1,0,0,0,1 @ F,0,0,1,0,2,0,1 @ F,0,0,1,0,0,0,1"
       unit="px"
       method="auto"
       mode="F"
       radius="0"
       chamfer_steps="1"
       flexible="false"
       use_knot_distance="true"
       apply_no_radius="true"
       apply_with_radius="true"
       only_selected="false"
       hide_knots="false" /></defs><style
     id="current-color-scheme">.ColorScheme-Text { color:#232629; }
.ColorScheme-Highlight { color:#3daee9; }
.ColorScheme-NegativeText { color:#da4453; }
.ColorScheme-NeutralText { color:#f67400; }
.ColorScheme-PositiveText { color:#27ae60; }</style><sodipodi:namedview
     id="namedview4"
     pagecolor="#ffeee5"
     bordercolor="#000000"
     borderopacity="0.25"
     inkscape:showpageshadow="2"
     inkscape:pageopacity="0"
     inkscape:pagecheckerboard="0"
     inkscape:deskcolor="#d1d1d1"
     showgrid="true"
     inkscape:zoom="18.818182"
     inkscape:cx="18.545894"
     inkscape:cy="13.922705"
     inkscape:window-width="1920"
     inkscape:window-height="1010"
     inkscape:window-x="0"
     inkscape:window-y="0"
     inkscape:window-maximized="1"
     inkscape:current-layer="svg2"><inkscape:grid
       type="xygrid"
       id="grid248"
       spacingx="0.5"
       spacingy="0.5"
       empspacing="4"
       originx="0"
       originy="0" /></sodipodi:namedview><path
     style="fill:currentColor;stroke-width:2;-inkscape-stroke:none;paint-order:stroke fill markers"
     d="m 21,6 h 2 v 4 h -2 z m 3,9 h -1 v -1 h 6 v 1 h -1 v 1 h -1 v 1 h -2 v -1 h -1 z m 0,-9 h 1 v 1 h 1 v 1 h 1 v 1 h 1 v 1 h -4 z m 4,5 v 2 H 24 V 11 Z M 18,6 h 2 v 4 h -2 z"
     id="path4905"
     class="ColorScheme-Highlight"
     sodipodi:nodetypes="ccccccccccccccccccccccccccccccccccccccc" /><g
     id="g1385"><path
       style="fill:#f7f7f7;stroke-width:1"
       d="M 19.5,28 H 19 V 27.5 27 H 18.5 18 V 26 25 H 17.5 17 v -1 -1 h 0.5 0.5 v 1 1 h 0.5 0.5 v 1 1 h 0.5 0.5 v 0.5 0.5 z m -1,-6 H 18 V 20.5 19 H 18.5 19 V 18.5 18 H 21.5 24 V 18.5 19 H 24.5 25 V 19.5 20 H 24.5 24 V 19.5 19 H 21.5 19 V 20.5 22 Z M 28,21 H 26 V 20.5 20 h 2 2 V 20.5 21 Z M 2.5,9 H 2 V 8.5 8 H 2.5 3 V 8.5 9 Z m 0,-4 H 2 V 4.5 4 H 2.5 3 V 3.5 3 H 3.5 4 V 2.5 2 H 4.5 5 V 2.5 3 H 4.5 4 V 3.5 4 H 3.5 3 V 4.5 5 Z m 4,-3 H 6 V 1.5 1 H 6.5 7 V 1.5 2 Z"
       id="path1429" /><path
       style="fill:#cbfefe;stroke-width:1"
       d="M 1.5,8 H 1 V 7 6 H 1.5 2 v 1 1 z"
       id="path1427" /><path
       style="fill:#cbfecb;stroke-width:1"
       d="M 2.5,10 H 1 V 9.5 9 H 2.5 4 V 9.5 10 Z m 7,-1 H 9 V 8.5 8 H 9.5 10 V 7.5 7 H 10.5 11 V 7.5 8 H 10.5 10 V 8.5 9 Z M 3.5,5 H 3 V 4.5 4 H 3.5 4 V 3.5 3 H 4.5 5 V 2.5 2 H 6 7 V 2.5 3 H 6 5 V 3.5 4 H 4.5 4 V 4.5 5 Z"
       id="path1425" /><path
       style="fill:#fefe98;stroke-width:1"
       d="M 21.5,28 H 21 V 27.5 27 H 20 19 V 26 25 H 18.5 18 v -1 -1 h 3 3 V 23.5 24 H 24.5 25 V 23.5 23 H 25.5 26 V 23.5 24 H 26.5 27 V 24.5 25 H 26.5 26 V 25.5 26 H 25.5 25 V 26.5 27 H 24.5 24 V 27.5 28 H 23.5 23 V 27.5 27 H 22.5 22 v 0.5 0.5 z m 0,-1 H 22 V 26.5 26 H 21.5 21 v 0.5 0.5 z m 2,0 H 24 V 26.5 26 H 24.5 25 V 25.5 25 H 25.5 26 V 24.5 24 H 25.5 25 V 24.5 25 H 24.5 24 V 25.5 26 H 23.5 23 v 0.5 0.5 z m -1,-2 H 23 V 24.5 24 H 22.5 22 v 0.5 0.5 z m 7,-2 H 29 V 22.5 22 H 24 19 V 20.5 19 h 2.5 2.5 v 0.5 0.5 h 1 1 v 0.5 0.5 h 2 2 v 1 1 z"
       id="path1423" /><path
       style="fill:#fecb98;stroke-width:1"
       d="M 20.5,28 H 20 V 27.5 27 H 20.5 21 V 26.5 26 H 21.5 22 V 26.5 27 H 22.5 23 V 26.5 26 H 23.5 24 V 25.5 25 H 24.5 25 V 24.5 24 H 24.5 24 V 23.5 23 H 24.5 25 V 23.5 24 H 25.5 26 V 23.5 23 H 26.5 27 V 23.5 24 H 26.5 26 v 0.5 0.5 h 1 1 V 26.5 28 H 26 24 V 27.5 27 H 23.5 23 V 27.5 28 H 22.5 22 V 27.5 27 H 21.5 21 v 0.5 0.5 z m 4,-1 H 25 V 26.5 26 H 25.5 26 V 25.5 25 H 25.5 25 V 25.5 26 H 24.5 24 v 0.5 0.5 z m -2,-2 H 22 V 24.5 24 h 0.5 0.5 v 0.5 0.5 z"
       id="path1421" /><path
       style="fill:#32fefe;stroke-width:1"
       d="M 2.5,7 H 2 V 6.5 6 H 2.5 3 V 6.5 7 Z"
       id="path1419" /><path
       style="fill:#cbcb65;stroke-width:1"
       d="M 28.5,28 H 28 v -1 -1 h 0.5 0.5 v 1 1 z m -1,-3 H 27 V 24 23 H 27.5 28 V 22.5 22 H 28.5 29 V 22.5 23 H 29.5 30 V 21.5 20 H 30.5 31 V 22.5 25 H 30 29 V 24 23 H 28.5 28 v 1 1 z"
       id="path1417" /><path
       style="fill:#32cbfe;stroke-width:1"
       d="M 7,9 H 6 V 8.5 8 H 5.5 5 V 7.5 7 H 6 7 V 6 5 H 8 9 V 4.5 4 H 9.5 10 V 4.5 5 H 9.5 9 V 5.5 6 H 8.5 8 V 7.5 9 Z"
       id="path1415" /><path
       style="fill:#0098fe;stroke-width:1"
       d="M 8.5,11 H 8 V 10.5 10 H 7.5 7 V 9.5 9 H 7.5 8 V 9.5 10 H 8.5 9 V 10.5 11 Z M 5.5,9 H 5 V 8.5 8 H 4.5 4 V 7.5 7 H 3.5 3 V 6.5 6 H 3.5 4 V 6.5 7 H 4.5 5 V 7.5 8 H 5.5 6 V 8.5 9 Z m 3,-1 H 8 V 7 6 H 8.5 9 V 5.5 5 H 8 7 V 4.5 4 H 8 9 V 3.5 3 H 9.5 10 V 3.5 4 H 9.5 9 V 4.5 5 H 9.5 10 V 5.5 6 H 9.5 9 V 7 8 Z M 6.5,7 H 6 V 6.5 6 H 6.5 7 V 6.5 7 Z"
       id="path1413" /><path
       style="fill:#32fe65;stroke-width:1"
       d="M 4,12 H 3 V 11.5 11 H 2.5 2 V 10.5 10 H 3.5 5 v 1 1 z"
       id="path1411" /><path
       style="fill:#3265fe;stroke-width:1"
       d="M 7.5,14 H 7 V 13 12 H 7.5 8 V 11.5 11 h 1 1 v 1 1 H 9 8 V 13.5 14 Z M 0.5,8 H 0 V 7 6 H 0.5 1 V 5.5 5 H 1.5 2 V 5.5 6 H 1.5 1 v 1 1 z m 5,-1 H 5 V 6.5 6 H 5.5 6 V 5.5 5 H 6.5 7 V 5.5 6 H 6.5 6 V 6.5 7 Z M 10,7 H 9 V 6.5 6 H 9.5 10 V 3.5 1 h 1 1 V 2 3 H 12.5 13 V 3.5 4 H 13.5 14 V 4.5 5 H 13 12 V 5.5 6 H 11.5 11 V 6.5 7 Z"
       id="path1409" /><path
       style="fill:#3232fe;stroke-width:1"
       d="M 6.5,15 H 6 V 14.5 14 H 6.5 7 v 0.5 0.5 z m 2,0 H 8 V 14.5 14 H 8.5 9 V 13.5 13 H 9.5 10 V 12.5 12 H 10.5 11 V 12.5 13 H 11.5 12 V 13.5 14 H 11.5 11 V 13.5 13 H 10.5 10 V 13.5 14 H 9.5 9 v 0.5 0.5 z m 4,-12 H 12 V 2.5 2 H 12.5 13 V 2.5 3 Z"
       id="path1407" /><path
       style="fill:#989800;stroke-width:1"
       d="M 24,29 H 18 V 28 27 H 17.5 17 V 26 25 H 16.5 16 V 23.5 22 H 16.5 17 V 20.5 19 H 17.5 18 V 18.5 18 H 18.5 19 V 17.5 17 h 2.5 2.5 v 0.5 0.5 h 0.5 0.5 v 0.5 0.5 h 3 3 V 19.5 20 H 28 25 V 19.5 19 H 24.5 24 V 18.5 18 H 21.5 19 V 18.5 19 H 18.5 18 v 1.5 1.5 h 5 5 V 22.5 23 H 22.5 17 v 1 1 h 0.5 0.5 v 1 1 h 0.5 0.5 v 0.5 0.5 h 5 5 V 27.5 27 h 0.5 0.5 v -1 -1 h 0.5 0.5 v 1 1 H 30.5 30 v 1 1 z m 4.5,-3 H 28 V 25.5 25 h 0.5 0.5 v 0.5 0.5 z"
       id="path1405" /><path
       style="fill:#32cb32;stroke-width:1"
       d="M 5.5,12 H 5 V 11 10 H 4.5 4 V 9.5 9 H 3.5 3 V 8.5 8 H 3.5 4 V 8.5 9 H 4.5 5 V 9.5 10 H 5.5 6 v 1 1 z m 4,-2 H 9 V 9.5 9 H 9.5 10 V 8.5 8 H 10.5 11 V 7.5 7 H 11.5 12 V 6.5 6 H 12.5 13 V 6.5 7 H 12.5 12 V 7.5 8 H 11.5 11 V 8.5 9 H 10.5 10 V 9.5 10 Z M 4.5,6 H 4 V 5 4 H 4.5 5 V 3.5 3 H 6 7 V 2 1 H 8 9 V 1.5 2 H 8.5 8 V 2.5 3 H 7.5 7 V 3.5 4 H 6.5 6 V 4.5 5 H 5.5 5 V 5.5 6 Z"
       id="path1403" /><path
       style="fill:#0032cb;stroke-width:1"
       d="M 7.5,15 H 7 V 14.5 14 H 6.5 6 V 13.5 13 H 6.5 7 V 13.5 14 H 7.5 8 V 13.5 13 H 8.5 9 V 13.5 14 H 9.5 10 V 13.5 13 H 10.5 11 V 12.5 12 H 11.5 12 V 12.5 13 H 11.5 11 V 13.5 14 H 10.5 10 V 14.5 15 H 9.5 9 V 14.5 14 H 8.5 8 v 0.5 0.5 z m 6,-11 H 13 V 3.5 3 H 13.5 14 V 3.5 4 Z"
       id="path1399" /><path
       style="fill:#329800;stroke-width:1"
       d="M 4.5,14 H 4 V 13.5 13 H 3 2 V 12.5 12 H 1.5 1 V 11 10 H 0.5 0 V 9 8 H 1 2 V 7.5 7 H 3 4 V 7.5 8 H 3 2 V 8.5 9 H 1.5 1 V 9.5 10 H 1.5 2 V 10.5 11 H 2.5 3 V 11.5 12 H 4.5 6 V 11 10 H 6.5 7 v 1 1 H 6.5 6 V 12.5 13 H 5.5 5 V 13.5 14 Z M 11,11 H 10 V 10 9 H 10.5 11 V 8.5 8 H 11.5 12 V 7.5 7 H 12.5 13 V 6.5 6 H 13.5 14 V 6.5 7 H 13.5 13 V 7.5 8 H 12.5 12 V 9.5 11 Z M 1.5,5 H 1 V 4.5 4 H 1.5 2 V 3.5 3 H 2.5 3 V 2.5 2 H 3.5 4 V 1.5 1 H 5 6 V 0.5 0 h 2 2 V 1 2 H 9.5 9 V 2.5 3 H 8.5 8 V 2.5 2 H 8.5 9 V 1.5 1 H 7.5 6 V 1.5 2 H 5 4 V 2.5 3 H 3.5 3 V 3.5 4 H 2.5 2 V 4.5 5 Z"
       id="path1397" /><path
       style="fill:#326500;stroke-width:1"
       d="M 4.5,7 H 4 V 6.5 6 H 3 2 V 5.5 5 H 3 4 V 5.5 6 H 4.5 5 V 5.5 5 H 5.5 6 V 4.5 4 H 6.5 7 V 3.5 3 H 8 9 V 2.5 2 H 9.5 10 V 2.5 3 H 9.5 9 V 3.5 4 H 8 7 V 4.5 5 H 6.5 6 V 5.5 6 H 5.5 5 V 6.5 7 Z"
       id="path1395" /><path
       style="fill:#006500;stroke-width:1"
       d="M 12,12 H 10 V 11.5 11 H 9.5 9 V 10.5 10 H 8.5 8 V 9 8 H 8.5 9 V 7.5 7 H 9.5 10 V 7.5 8 H 9.5 9 v 1 1 H 9.5 10 v 0.5 0.5 h 1 1 V 9.5 8 H 12.5 13 V 7.5 7 H 13.5 14 V 6.5 6 H 13 12 V 6.5 7 H 11.5 11 V 6.5 6 H 11.5 12 V 5.5 5 h 1 1 V 5.5 6 h 0.5 0.5 v 2 2 H 14.5 14 v 1 1 z M 6,10 H 5 V 9.5 9 H 4.5 4 V 8.5 8 H 4.5 5 V 8.5 9 H 6 7 V 9.5 10 Z"
       id="path1393" /><path
       style="fill:#003200;stroke-width:1"
       d="M 12.5,13 H 12 V 12.5 12 h 0.5 0.5 v 0.5 0.5 z"
       id="path1391" /><path
       style="fill:#070707;stroke-width:1"
       d="M 14.5,5 H 14 V 4.5 4 H 14.5 15 V 4.5 5 Z"
       id="path1389" /><path
       style="fill:#000000;stroke-width:1"
       d="M 25.5,30 H 19 V 29.5 29 H 24.5 30 V 28 27 H 29.5 29 V 26 25 H 28.5 28 v -1 -1 h 0.5 0.5 v 1 1 h 0.5 0.5 v 1 1 H 30.5 31 V 23.5 20 h 0.5 0.5 v 5 5 z M 8,16 H 6 V 15.5 15 H 5 4 V 14.5 14 H 3.5 3 V 13.5 13 H 3.5 4 V 13.5 14 H 4.5 5 V 13.5 13 H 5.5 6 V 12.5 12 H 6.5 7 V 11 10 H 7.5 8 v 1 1 H 7.5 7 V 12.5 13 H 6.5 6 v 1 1 h 2 2 V 14.5 14 h 1 1 V 13.5 13 H 12.5 13 V 12.5 12 H 13.5 14 V 11 10 H 14.5 15 V 8 6 H 14.5 14 V 5.5 5 H 14.5 15 V 5.5 6 h 0.5 0.5 v 2 2 H 15.5 15 v 1 1 H 14.5 14 V 12.5 13 H 13.5 13 V 13.5 14 H 12.5 12 v 0.5 0.5 h -1 -1 v 0.5 0.5 z"
       id="path1387" /></g></svg>
