<?xml version="1.0" encoding="UTF-8" standalone="no"?>
<svg
   id="svg620"
   width="32"
   version="1.1"
   height="32"
   sodipodi:docname="edit-cut.svg"
   inkscape:version="1.2.2 (b0a8486541, 2022-12-01)"
   xml:space="preserve"
   xmlns:inkscape="http://www.inkscape.org/namespaces/inkscape"
   xmlns:sodipodi="http://sodipodi.sourceforge.net/DTD/sodipodi-0.dtd"
   xmlns="http://www.w3.org/2000/svg"
   xmlns:svg="http://www.w3.org/2000/svg"
   xmlns:rdf="http://www.w3.org/1999/02/22-rdf-syntax-ns#"
   xmlns:cc="http://creativecommons.org/ns#"
   xmlns:dc="http://purl.org/dc/elements/1.1/"><sodipodi:namedview
     pagecolor="#ffffff"
     bordercolor="#666666"
     borderopacity="1"
     objecttolerance="10"
     gridtolerance="10"
     guidetolerance="10"
     inkscape:pageopacity="0"
     inkscape:pageshadow="2"
     inkscape:window-width="1920"
     inkscape:window-height="1010"
     id="namedview313"
     showgrid="true"
     inkscape:zoom="22.627417"
     inkscape:cx="14.981825"
     inkscape:cy="14.451495"
     inkscape:window-x="0"
     inkscape:window-y="0"
     inkscape:window-maximized="1"
     inkscape:current-layer="svg620"
     inkscape:showpageshadow="2"
     inkscape:pagecheckerboard="0"
     inkscape:deskcolor="#d1d1d1"><inkscape:grid
       type="xygrid"
       id="grid4713"
       originx="-4.9182883e-07"
       originy="16" /></sodipodi:namedview><metadata
     id="metadata624"><rdf:RDF><cc:Work
         rdf:about=""><dc:format>image/svg+xml</dc:format><dc:type
           rdf:resource="http://purl.org/dc/dcmitype/StillImage" /></cc:Work></rdf:RDF></metadata><defs
     id="defs2" /><style
     id="current-color-scheme">
      .ColorScheme-Text {
        color:#232629;
      }
      .ColorScheme-Highlight {
        color:#3daee9;
      }
      </style><path
     style="fill:#fefefe;stroke-width:1"
     d="M 14.5,22 H 14 V 21.5 21 h 0.5 0.5 v 0.5 0.5 z m 2,-2 H 16 V 19.5 19 h 0.5 0.5 v 0.5 0.5 z m -1,-2 H 15 V 17.5 17 h 0.5 0.5 v 0.5 0.5 z m -1,-2 H 14 V 15.5 15 h 0.5 0.5 v 0.5 0.5 z m 3,-1 H 17 V 14.5 14 h 0.5 0.5 v 0.5 0.5 z m -4,-1 H 13 V 13.5 13 h 0.5 0.5 v 0.5 0.5 z m 5,-1 H 18 V 12.5 12 h 0.5 0.5 v 0.5 0.5 z m -6,-1 H 12 V 11.5 11 h 0.5 0.5 v 0.5 0.5 z m 7,-1 H 19 V 10.5 9.9999997 H 19.5 20 V 10.5 11 Z m -8,-1.0000003 H 11 v -0.5 -0.5 h 0.5 0.5 v 0.5 0.5 z m 9,-1 H 20 v -0.5 -0.5 h 0.5 0.5 v 0.5 0.5 z m -10,-1 H 9.9999995 v -0.5 -0.5 H 10.5 11 v 0.5 0.5 z m 11,-1 H 21 v -0.5 -0.5 h 0.5 0.5 v 0.5 0.5 z m -12.0000005,-1 h -0.5 v -0.5 -0.5 h 0.5 0.5 v 0.5 0.5 z m 13.0000005,-1 H 22 v -0.5 -0.5 h 0.5 0.5 v 0.5 0.5 z m -14.0000005,-1 h -0.5 v -0.5 -0.5 h 0.5 0.5 v 0.5 0.5 z m 15.0000005,-1 H 23 v -0.5 -0.5 h 0.5 0.5 v 0.5 0.5 z"
     id="path3784" /><path
     style="fill:#cbcbcb;stroke-width:1"
     d="M 18.5,22 H 18 V 21.5 21 h 0.5 0.5 v 0.5 0.5 z m -1,-2 H 17 V 19.5 19 H 16.5 16 V 18.5 18 h 0.5 0.5 v 0.5 0.5 h 0.5 0.5 v 0.5 0.5 z m -2,-3 H 15 V 16.5 16 h 0.5 0.5 v 0.5 0.5 z m 2,-1 H 17 V 15.5 15 h 0.5 0.5 v 0.5 0.5 z m -3,-1 H 14 V 14.5 14 h 0.5 0.5 v 0.5 0.5 z m 4,-1 H 18 V 13.5 13 h 0.5 0.5 v 0.5 0.5 z m -5,-1 H 13 V 12.5 12 h 0.5 0.5 v 0.5 0.5 z m 6,-1 H 19 V 11.5 11 h 0.5 0.5 v 0.5 0.5 z m -7,-1 H 12 V 10.5 9.9999997 H 12.5 13 V 10.5 11 Z m 8,-1.0000003 H 20 v -0.5 -0.5 h 0.5 0.5 v 0.5 0.5 z m -9,-1 H 11 v -0.5 -0.5 h 0.5 0.5 v 0.5 0.5 z m 10,-1 H 21 v -0.5 -0.5 h 0.5 0.5 v 0.5 0.5 z m -11,-1 H 9.9999995 v -0.5 -0.5 H 10.5 11 v 0.5 0.5 z m 12,-1 H 22 v -0.5 -0.5 h 0.5 0.5 v 0.5 0.5 z m -13.0000005,-1 h -0.5 v -0.5 -0.5 h 0.5 0.5 v 0.5 0.5 z m 14.0000005,-1 H 23 v -0.5 -0.5 h 0.5 0.5 v 0.5 0.5 z"
     id="path3780" /><path
     style="fill:#b1b1b1;stroke-width:1"
     d="M 15.5,20 H 15 V 19.5 19 H 15.5 16 V 19.5 20 Z M 8.4999995,2.9999997 h -0.5 v -0.5 -0.5 h 0.5 0.5 v 0.5 0.5 z"
     id="path3778" /><path
     style="fill:#858585;stroke-width:1"
     d="M 15.5,24 H 15 V 23.5 23 h 0.5 0.5 v 0.5 0.5 z m -2,-2 H 13 V 21.5 21 H 13.5 14 V 20 19 H 14.5 15 V 18.5 18 H 14.5 14 V 17 16 H 13.5 13 V 15 14 H 12.5 12 V 13 12 H 11.5 11 V 11 9.9999997 H 10.5 9.9999995 v -1 -1 h -0.5 -0.5 v -1 -1 h -0.5 -0.5 v -1 -1 h -0.5 -0.5 v -1 -1 h 0.5 0.5 v -0.5 -0.49999995 h 0.5 0.5 v 0.49999995 0.5 h -0.5 -0.5 v 1 1 h 0.5 0.5 v -0.5 -0.5 h 0.5 0.5 v 0.5 0.5 h -0.5 -0.5 v 1 1 h 0.5 0.5 v -0.5 -0.5 H 10.5 11 v 0.5 0.5 H 10.5 9.9999995 v 1 1 H 10.5 11 v -0.5 -0.5 h 0.5 0.5 v 0.5 0.5 H 11.5 11 v 1 1 h 0.5 0.5 v -0.5 -0.5 h 0.5 0.5 v 0.5 0.5 H 12.5 12 V 11 12 H 12.5 13 V 11.5 11 H 13.5 14 V 11.5 12 H 13.5 13 v 1 1 H 13.5 14 V 13.5 13 H 14.5 15 V 13.5 14 H 14.5 14 v 1 1 H 14.5 15 V 15.5 15 H 15.5 16 V 14.5 14 H 16.5 17 V 13 12 H 17.5 18 V 11 9.9999997 h 0.5 0.5 v -1 -1 h 0.5 0.5 v -1 -1 h 0.5 0.5 v -1 -1 h 0.5 0.5 v -1 -1 h 0.5 0.5 v -0.5 -0.49999995 h 0.5 0.5 v 0.49999995 0.5 h 0.5 0.5 v 0.5 0.5 H 24.5 24 v -0.5 -0.5 H 23.5 23 v 1 1 h 0.5 0.5 v 0.5 0.5 H 23.5 23 v -0.5 -0.5 H 22.5 22 v 1 1 h 0.5 0.5 v 0.5 0.5 H 22.5 22 v -0.5 -0.5 H 21.5 21 v 1 1 h 0.5 0.5 v 0.5 0.5 H 21.5 21 v -0.5 -0.5 H 20.5 20 v 1 1 H 20.5 21 V 10.5 11 H 20.5 20 V 10.5 9.9999997 H 19.5 19 V 11 12 H 19.5 20 V 12.5 13 H 19.5 19 V 12.5 12 H 18.5 18 v 1 1 H 18.5 19 V 14.5 15 H 18.5 18 V 14.5 14 H 17.5 17 V 14.5 15 H 16.5 16 V 15.5 16 H 15.5 15 v 1 1 H 15.5 16 V 17.5 17 H 16.5 17 V 16.5 16 H 17.5 18 V 16.5 17 H 17.5 17 V 17.5 18 H 16.5 16 V 18.5 19 H 15.5 15 v 1 1 H 14.5 14 v 0.5 0.5 z m 4,-1 H 17 V 20.5 20 h 0.5 0.5 v 0.5 0.5 z"
     id="path3770" /><path
     style="fill:#7f7f7f;stroke-width:1"
     d="M 15.5,21 H 15 V 20.5 20 h 0.5 0.5 v 0.5 0.5 z"
     id="path3768" /><path
     style="fill:#383838;stroke-width:1"
     d="M 19.5,23 H 19 V 22.5 22 h 0.5 0.5 v 0.5 0.5 z m -4,-1 H 15 V 21.5 21 h 0.5 0.5 v 0.5 0.5 z m 3,-1 H 18 V 20.5 20 h 0.5 0.5 v 0.5 0.5 z m -1,-2 H 17 V 18.5 18 h 0.5 0.5 v 0.5 0.5 z m -1,-2 H 16 V 16.5 16 h 0.5 0.5 v 0.5 0.5 z m 2,-1 H 18 V 15.5 15 h 0.5 0.5 v 0.5 0.5 z m -3,-1 H 15 V 14.5 14 h 0.5 0.5 v 0.5 0.5 z m 4,-1 H 19 V 13.5 13 h 0.5 0.5 v 0.5 0.5 z m -5,-1 H 14 V 12.5 12 h 0.5 0.5 v 0.5 0.5 z m 6,-1 H 20 V 11.5 11 h 0.5 0.5 v 0.5 0.5 z m -7,-1 H 13 V 10.5 9.9999997 H 13.5 14 V 10.5 11 Z m 8,-1.0000003 H 21 v -0.5 -0.5 h 0.5 0.5 v 0.5 0.5 z m -9,-1 H 12 v -0.5 -0.5 h 0.5 0.5 v 0.5 0.5 z m 10,-1 H 22 v -0.5 -0.5 h 0.5 0.5 v 0.5 0.5 z m -11,-1 H 11 v -0.5 -0.5 h 0.5 0.5 v 0.5 0.5 z m 12,-1 H 23 v -0.5 -0.5 h 0.5 0.5 v 0.5 0.5 z m -13,-1 H 9.9999995 v -0.5 -0.5 H 10.5 11 v 0.5 0.5 z m 14,-1 H 24 v -0.5 -0.5 h 0.5 0.5 v 0.5 0.5 z m -15.0000005,-1 h -0.5 v -0.5 -0.5 h 0.5 0.5 v 0.5 0.5 z"
     id="path3762" /><path
     style="fill:currentColor;stroke-width:1"
     d="M 9.9999995,30 H 7.9999985 V 29.5 29 h -0.5 -0.5 V 28.5 28 h -0.5 -0.5 V 26.5 25 h 0.5 0.5 v -1 -1 h 1 1 V 22.5 22 H 11.5 13.999999 v 3 3 h -0.5 -0.5 v 0.5 0.5 h -0.5 H 12 V 29.5 30 Z M 10.5,28 H 12 V 26.5 25 H 10.5 8.9999985 V 26.5 28 Z M 23,30 H 20.999998 V 29.5 29 h -0.5 -0.5 V 28.5 28 h -0.5 -0.5 V 25.5 23 h 0.5 0.5 V 22.5 22 H 22.5 24.999998 v 0.5 0.5 h 0.5 0.5 v 0.5 0.5 h 0.5 0.5 v 2 2 h -0.5 -0.5 v 0.5 0.5 h -0.5 -0.5 v 0.5 0.5 z m 0.499998,-2 h 1.5 V 26.5 25 h -1.5 H 22 v 1.5 1.5 z"
     id="rect338"
     class="ColorScheme-Highlight"
     sodipodi:nodetypes="cccccccccccccccccccccccccccccccccccccccccccccccccccccccccccccccccccccccccccccccccccccccc" /><g
     id="g5456"
     style="opacity:0.5"><path
       style="fill:#ededed;stroke-width:1;fill-opacity:1"
       d="m 7.4999995,26 h -0.5 V 25.5 25 h 0.5 0.5 V 25.5 26 Z M 20.5,26 H 20 V 25.5 25 H 20.5 21 V 25.5 26 Z M 9.4999995,24 h -0.5 V 23.5 23 h 0.5 0.5 V 23.5 24 Z M 22.5,24 H 22 V 23.5 23 h 0.5 0.5 v 0.5 0.5 z"
       id="path3782" /><path
       style="fill:#bcbcbc;stroke-width:1;fill-opacity:1"
       d="m 7.4999995,27 h -0.5 V 26.5 26 h 0.5 0.5 V 26.5 27 Z M 20.5,27 H 20 V 26.5 26 H 20.5 21 V 26.5 27 Z M 8.4999995,25 h -0.5 V 24.5 24 h 0.5 0.5 V 24.5 25 Z M 21,25 H 20 V 24.5 24 H 20.5 21 V 23.5 23 h 0.5 0.5 v 1 1 z M 10.5,24 H 9.9999995 V 23.5 23 H 10.5 11 v 0.5 0.5 z m 13,0 H 23 V 23.5 23 h 0.5 0.5 v 0.5 0.5 z"
       id="path3776" /><path
       style="fill:#707070;stroke-width:1;fill-opacity:1"
       d="m 6.4999995,28 h -0.5 V 26.5 25 h 0.5 0.5 v -1 -1 h 1 1 V 22.5 22 H 11.5 14 V 22.5 23 H 11.5 8.9999995 v 0.5 0.5 h -0.5 -0.5 v 0.5 0.5 h -0.5 -0.5 V 26.5 28 Z M 19.5,28 H 19 V 25.5 23 H 19.5 20 V 22.5 22 H 22.5 25 V 22.5 23 H 23 21 V 23.5 24 H 20.5 20 v 2 2 z"
       id="path3772" /><path
       style="fill:#464646;stroke-width:1;fill-opacity:1"
       d="M 10.5,29 H 8.9999995 V 28.5 28 H 10.5 12 V 26.5 25 H 12.5 13 V 26.5 28 H 12.5 12 v 0.5 0.5 z m 13,0 H 22 V 28.5 28 H 23.5 25 V 26.5 25 H 25.5 26 V 26.5 28 H 25.5 25 v 0.5 0.5 z"
       id="path3766" /><path
       style="fill:#4e4e4e;stroke-width:1;fill-opacity:1"
       d="m 8.4999995,30 h -0.5 V 29.5 29 h -0.5 -0.5 V 28.5 28 h 0.5 0.5 v 0.5 0.5 h 0.5 0.5 V 29.5 30 Z M 21.5,30 H 21 V 29.5 29 H 20.5 20 V 28.5 28 h 0.5 0.5 v 0.5 0.5 h 0.5 0.5 v 0.5 0.5 z m 5,-5 H 26 V 24.5 24 H 25.5 25 V 23.5 23 h 0.5 0.5 v 0.5 0.5 h 0.5 0.5 v 0.5 0.5 z m -13,-1 H 13 V 23.5 23 h 0.5 0.5 v 0.5 0.5 z"
       id="path3764" /><path
       style="fill:#323232;stroke-width:1;fill-opacity:1"
       d="m 8.4999995,28 h -0.5 V 26.5 25 h 0.5 0.5 V 24.5 24 H 10.5 12 V 24.5 25 H 10.5 8.9999995 V 26.5 28 Z M 21.5,28 H 21 V 26.5 25 H 21.5 22 V 24.5 24 H 23.5 25 V 24.5 25 H 23.5 22 v 1.5 1.5 z"
       id="path3760" /></g><path
     style="fill:#000000;stroke-width:1"
     d="M 10.5,31 H 8.9999995 V 30.5 30 H 10.5 12 V 29.5 29 H 12.5 13 V 28.5 28 h 0.5 0.5 v -3 -3 h 1 1 V 22.5 23 H 15.5 15 V 25.5 28 H 14.5 14 v 1 1 h -1 -1 v 0.5 0.5 z m 13,0 H 22 V 30.5 30 H 23.5 25 V 29.5 29 H 25.5 26 V 28.5 28 H 26.5 27 V 26.5 25 H 27.5 28 V 26.5 28 H 27.5 27 v 1 1 H 26 25 V 30.5 31 Z M 7.4999995,30 h -0.5 V 29.5 29 h 0.5 0.5 V 29.5 30 Z M 20.5,30 H 20 V 29.5 29 h 0.5 0.5 v 0.5 0.5 z m -2,-6 H 18 V 23 22 H 17.5 17 V 21.5 21 H 16.5 16 V 20.5 20 H 16.5 17 V 20.5 21 H 17.5 18 V 21.5 22 H 18.5 19 V 21.5 21 H 19.5 20 V 21.5 22 H 19.5 19 v 1 1 z m 8,0 H 26 V 23.5 23 h 0.5 0.5 v 0.5 0.5 z m -8,-4 H 18 V 19.5 19 h 0.5 0.5 v 0.5 0.5 z m -1,-2 H 17 V 17.5 17 H 17.5 18 V 16.5 16 H 18.5 19 V 16.5 17 H 18.5 18 v 0.5 0.5 z m -1,-2 H 16 V 15.5 15 h 0.5 0.5 v 0.5 0.5 z m 3,-1 H 19 V 14.5 14 h 0.5 0.5 v 0.5 0.5 z m -4,-1 H 15 V 13.5 13 h 0.5 0.5 v 0.5 0.5 z m 5,-1 H 20 V 12.5 12 h 0.5 0.5 v 0.5 0.5 z m -6,-1 H 14 V 11.5 11 h 0.5 0.5 v 0.5 0.5 z m 7,-1 H 21 V 10.5 9.9999997 H 21.5 22 V 10.5 11 Z m -8,-1.0000003 H 13 v -0.5 -0.5 h 0.5 0.5 v 0.5 0.5 z m 9,-1 H 22 v -0.5 -0.5 h 0.5 0.5 v 0.5 0.5 z m -10,-1 H 12 v -0.5 -0.5 h 0.5 0.5 v 0.5 0.5 z m 11,-1 H 23 v -0.5 -0.5 h 0.5 0.5 v 0.5 0.5 z m -12,-1 H 11 v -0.5 -0.5 h 0.5 0.5 v 0.5 0.5 z m 13,-1 H 24 v -0.5 -0.5 h 0.5 0.5 v 0.5 0.5 z m -14,-1 H 9.9999995 v -0.5 -0.5 H 10.5 11 v 0.5 0.5 z m 15,-1 H 25 v -0.5 -0.5 H 24.5 24 v -0.5 -0.49999995 h 0.5 0.5 v 0.49999995 0.5 h 0.5 0.5 v 0.5 0.5 z m -16.0000005,-1 h -0.5 v -0.5 -0.49999995 h 0.5 0.5 v 0.49999995 0.5 z"
     id="path3758" /></svg>
