<?xml version="1.0" encoding="UTF-8" standalone="no"?>
<!-- Created with Inkscape (http://www.inkscape.org/) -->

<svg
   version="1.1"
   id="svg2"
   width="48"
   height="48"
   viewBox="0 0 48 48"
   sodipodi:docname="download.svg"
   xml:space="preserve"
   inkscape:version="1.2.2 (b0a8486541, 2022-12-01)"
   xmlns:inkscape="http://www.inkscape.org/namespaces/inkscape"
   xmlns:sodipodi="http://sodipodi.sourceforge.net/DTD/sodipodi-0.dtd"
   xmlns="http://www.w3.org/2000/svg"
   xmlns:svg="http://www.w3.org/2000/svg"><defs
     id="defs6"><inkscape:path-effect
       effect="fillet_chamfer"
       id="path-effect531"
       is_visible="true"
       lpeversion="1"
       nodesatellites_param="F,0,0,1,0,0,0,1 @ F,0,0,1,0,0,0,1 @ F,0,0,1,0,0,0,1 @ F,0,0,1,0,0,0,1 @ F,0,0,1,0,0,0,1 @ F,0,0,1,0,2,0,1 @ F,0,0,1,0,0,0,1 @ F,0,0,1,0,0,0,1 @ F,0,0,1,0,0,0,1 @ F,0,0,1,0,0,0,1 @ F,0,0,1,0,0,0,1 @ F,0,0,1,0,0,0,1 @ F,0,0,1,0,0,0,1 @ F,0,0,1,0,0,0,1 @ F,0,0,1,0,2,0,1 @ F,0,0,1,0,0,0,1"
       unit="px"
       method="auto"
       mode="F"
       radius="0"
       chamfer_steps="1"
       flexible="false"
       use_knot_distance="true"
       apply_no_radius="true"
       apply_with_radius="true"
       only_selected="false"
       hide_knots="false" /></defs><style
     id="current-color-scheme">.ColorScheme-Text { color:#232629; }
.ColorScheme-Highlight { color:#3daee9; }
.ColorScheme-NegativeText { color:#da4453; }
.ColorScheme-NeutralText { color:#f67400; }
.ColorScheme-PositiveText { color:#27ae60; }</style><sodipodi:namedview
     id="namedview4"
     pagecolor="#ffeee5"
     bordercolor="#000000"
     borderopacity="0.25"
     inkscape:showpageshadow="2"
     inkscape:pageopacity="0"
     inkscape:pagecheckerboard="0"
     inkscape:deskcolor="#d1d1d1"
     showgrid="true"
     inkscape:zoom="18"
     inkscape:cx="24"
     inkscape:cy="23"
     inkscape:window-width="1920"
     inkscape:window-height="1010"
     inkscape:window-x="0"
     inkscape:window-y="0"
     inkscape:window-maximized="1"
     inkscape:current-layer="svg2"><inkscape:grid
       type="xygrid"
       id="grid248"
       spacingx="0.5"
       spacingy="0.5"
       empspacing="4"
       originx="0"
       originy="0" /></sodipodi:namedview><path
     style="fill:currentColor;stroke-width:2;-inkscape-stroke:none;paint-order:stroke fill markers"
     d="m 31,9 h 3 v 6 h -3 z m 5,14 h -1 v -1 h 8 v 1 h -1 v 1 h -1 v 1 h -1 v 1 H 38 V 25 H 37 V 24 H 36 Z M 36,9 h 1 v 1 h 1 v 1 h 1 v 1 h 1 v 1 h 1 v 1 h 1 v 1 h -6 z m 6,8 v 3 H 36 V 17 Z M 26,9 h 3 v 6 h -3 z"
     id="path4905"
     class="ColorScheme-Highlight"
     sodipodi:nodetypes="ccccccccccccccccccccccccccccccccccccccccccccccc" /><g
     id="g3611"
     transform="translate(-38,46)"><path
       style="fill:#fefefe;stroke-width:1"
       d="M 65.5,-4 H 65 V -5.5 -7 H 64.5 64 V -8.5 -10 H 63.5 63 v -1.5 -1.5 h 8.5 8.5 v 0.5 0.5 h -8 -8 v 1 1 h 0.5 0.5 v 1.5 1.5 h 0.5 0.5 v 1.5 1.5 z m 1,-10 H 66 v -1.5 -1.5 h 0.5 0.5 v -0.5 -0.5 h 3.5 3.5 v 0.5 0.5 H 70.5 67 v 1.5 1.5 z M 78,-15 h -1 v -0.5 -0.5 h 1 1 v 0.5 0.5 z"
       id="path3691" /><path
       style="fill:#f7f7f7;stroke-width:1"
       d="m 81,-15 h -2 v -0.5 -0.5 h 2 2 v 0.5 0.5 z M 39.5,-35 H 39 V -35.5 -36 H 39.5 40 V -36.5 -37 H 40.5 41 V -37.5 -38 H 40.5 40 v -0.5 -0.5 h 0.5 0.5 v 0.5 0.5 h 0.5 0.5 v 0.5 0.5 H 41.5 41 v 0.5 0.5 H 40.5 40 v 0.5 0.5 z m 3,-6 H 42 v -0.5 -0.5 h 0.5 0.5 v -0.5 -0.5 h 0.5 0.5 v 0.5 0.5 H 43.5 43 v 0.5 0.5 z m 3,-2 H 45 v -0.5 -0.5 h 0.5 0.5 v 0.5 0.5 z m 2,-1 H 47 v -0.5 -0.5 h 0.5 0.5 v 0.5 0.5 z"
       id="path3689" /><path
       style="fill:#cbfefe;stroke-width:1"
       d="M 39.5,-34 H 39 V -34.5 -35 H 39.5 40 V -35.5 -36 H 39.5 39 v -0.5 -0.5 h 0.5 0.5 v -0.5 -0.5 h 0.5 0.5 v -0.5 -0.5 h 0.5 0.5 v 0.5 0.5 H 41.5 41 v 0.5 0.5 H 40.5 40 v 0.5 0.5 h 0.5 0.5 v 0.5 0.5 H 40.5 40 v 0.5 0.5 z"
       id="path3687" /><path
       style="fill:#e9e9e9;stroke-width:1"
       d="M 39.5,-32 H 39 v -0.5 -0.5 h 0.5 0.5 v 0.5 0.5 z"
       id="path3685" /><path
       style="fill:#cbfecb;stroke-width:1"
       d="M 52.5,-34 H 52 v -0.5 -0.5 h 0.5 0.5 v 0.5 0.5 z m 2,0 H 54 v -0.5 -0.5 h 0.5 0.5 v 0.5 0.5 z m 2,-1 H 56 v -0.5 -0.5 h 0.5 0.5 v 0.5 0.5 z m 1,-2 H 57 v -0.5 -0.5 h 0.5 0.5 v 0.5 0.5 z m -16,-3 H 41 v -0.5 -0.5 h 0.5 0.5 v 0.5 0.5 z m 2,-1 H 43 v -0.5 -0.5 h 0.5 0.5 v -0.5 -0.5 h 0.5 0.5 v 0.5 0.5 H 44.5 44 v 0.5 0.5 z m 3,-3 H 46 v -0.5 -0.5 h 0.5 0.5 v 0.5 0.5 z m 2,0 H 48 v -0.5 -0.5 h 0.5 0.5 v 0.5 0.5 z"
       id="path3683" /><path
       style="fill:#dcdcdc;stroke-width:1"
       d="M 40.5,-33 H 40 v -0.5 -0.5 h 0.5 0.5 v 0.5 0.5 z"
       id="path3681" /><path
       style="fill:#fefe98;stroke-width:1"
       d="M 67,-3 H 66 V -4 -5 H 66.5 67 V -5.5 -6 H 66.5 66 V -6.5 -7 H 65.5 65 V -8.5 -10 H 64.5 64 v -1 -1 h 5 5 v 0.5 0.5 h 0.5 0.5 v -0.5 -0.5 h 1 1 v 0.5 0.5 h 0.5 0.5 v 0.5 0.5 h 0.5 0.5 v -1 -1 h 0.5 0.5 v 1 1 h 0.5 0.5 v 1 1 H 81.5 82 V -7.5 -7 H 81.5 81 V -7.5 -8 H 80.5 80 V -7.5 -7 H 79.5 79 v 0.5 0.5 h 1 1 V -5.5 -5 H 81.5 82 V -5.5 -6 H 82.5 83 V -5.5 -5 H 82.5 82 V -4.5 -4 H 81.5 81 V -3.5 -3 H 80 79 V -3.5 -4 h 1 1 V -4.5 -5 H 80 79 V -5.5 -6 H 78.5 78 V -5.5 -5 H 77.5 77 V -4.5 -4 H 77.5 78 V -3.5 -3 H 77.5 77 V -3.5 -4 H 76.5 76 V -4.5 -5 H 75.5 75 V -4.5 -4 H 74.5 74 V -3.5 -3 H 73.5 73 V -3.5 -4 H 72.5 72 V -3.5 -3 H 71.5 71 V -3.5 -4 H 70.5 70 V -3.5 -3 H 69.5 69 V -3.5 -4 H 68.5 68 v 0.5 0.5 z m 0.5,-1 H 68 V -4.5 -5 H 67.5 67 v 0.5 0.5 z m 2,0 H 70 V -4.5 -5 H 70.5 71 V -4.5 -4 H 71.5 72 V -4.5 -5 H 72.5 73 V -4.5 -4 H 73.5 74 V -4.5 -5 H 74.5 75 V -5.5 -6 H 75.5 76 V -5.5 -5 H 76.5 77 V -5.5 -6 H 77.5 78 V -6.5 -7 H 78.5 79 V -7.5 -8 h 0.5 0.5 v -1 -1 H 79.5 79 v 1 1 H 78.5 78 v -1 -1 H 77.5 77 v -0.5 -0.5 h -1 -1 v 0.5 0.5 H 74.5 74 V -10.5 -11 H 73.5 73 v 0.5 0.5 H 73.5 74 V -9.5 -9 H 73.5 73 V -8.5 -8 H 72.5 72 V -8.5 -9 H 71.5 71 V -8.5 -8 H 70.5 70 V -8.5 -9 H 69.5 69 V -9.5 -10 H 69.5 70 V -10.5 -11 H 69.5 69 v 0.5 0.5 H 68.5 68 V -9.5 -9 H 68.5 69 V -8.5 -8 H 69.5 70 V -7.5 -7 H 69.5 69 V -6.5 -6 H 69.5 70 V -5.5 -5 H 69.5 69 v 0.5 0.5 z m 2,-1 H 71 V -5.5 -6 H 70.5 70 V -6.5 -7 H 70.5 71 V -7.5 -8 H 71.5 72 V -7.5 -7 H 72.5 73 V -7.5 -8 H 73.5 74 V -8.5 -9 H 74.5 75 V -9.5 -10 H 75.5 76 V -9.5 -9 H 76.5 77 V -8.5 -8 H 77.5 78 V -7.5 -7 H 77.5 77 V -6.5 -6 H 76.5 76 V -6.5 -7 H 75.5 75 V -6.5 -6 H 74.5 74 V -5.5 -5 H 73.5 73 V -5.5 -6 H 72.5 72 v 0.5 0.5 z m 0,-1 H 72 V -6.5 -7 H 71.5 71 v 0.5 0.5 z m 2,0 H 74 V -6.5 -7 H 74.5 75 V -7.5 -8 H 75.5 76 V -7.5 -7 H 76.5 77 V -7.5 -8 H 76.5 76 V -8.5 -9 H 75.5 75 V -8.5 -8 H 74.5 74 V -7.5 -7 H 73.5 73 v 0.5 0.5 z m -7,-1 H 67 V -7.5 -8 H 66.5 66 v 0.5 0.5 z m 0,-3 H 67 V -10.5 -11 H 66.5 66 v 0.5 0.5 z m 5,0 H 72 V -10.5 -11 H 71.5 71 v 0.5 0.5 z m 12,-1 H 83 V -11.5 -12 H 82.5 82 v -1 -1 H 74.5 67 v -1.5 -1.5 h 4 4 v 0.5 0.5 h 0.5 0.5 v 0.5 0.5 h 3 3 v 0.5 0.5 h 0.5 0.5 v -0.5 -0.5 h 0.5 0.5 v 1 1 H 83.5 83 v 0.5 0.5 h 0.5 0.5 v 0.5 0.5 z"
       id="path3679" /><path
       style="fill:#fecb98;stroke-width:1"
       d="M 75,-2 H 66 V -2.5 -3 h 1 1 V -3.5 -4 H 67.5 67 V -4.5 -5 H 66.5 66 V -5.5 -6 H 66.5 67 V -5.5 -5 H 67.5 68 V -4.5 -4 H 68.5 69 V -4.5 -5 H 69.5 70 V -5.5 -6 H 69.5 69 V -6.5 -7 H 69.5 70 V -7.5 -8 H 69.5 69 V -8.5 -9 H 68.5 68 V -9.5 -10 h 0.5 0.5 v -0.5 -0.5 h 0.5 0.5 v 0.5 0.5 H 69.5 69 V -9.5 -9 H 69.5 70 V -8.5 -8 H 70.5 71 V -8.5 -9 H 71.5 72 V -8.5 -8 H 72.5 73 V -8.5 -9 H 73.5 74 V -9.5 -10 H 73.5 73 v -0.5 -0.5 h 0.5 0.5 v -0.5 -0.5 h 0.5 0.5 v 0.5 0.5 h 1 1 v -0.5 -0.5 h 1 1 v 1 1 h 0.5 0.5 v -1 -1 h 0.5 0.5 v 1 1 h 0.5 0.5 v 1 1 h 0.5 0.5 v 1 1 H 82.5 82 v 0.5 0.5 h 1 1 V -3.5 -2 Z M 69.5,-3 H 70 V -3.5 -4 H 70.5 71 V -3.5 -3 H 71.5 72 V -3.5 -4 H 72.5 73 V -3.5 -3 H 73.5 74 V -3.5 -4 H 74.5 75 V -4.5 -5 H 75.5 76 V -4.5 -4 H 76.5 77 V -3.5 -3 H 77.5 78 V -3.5 -4 H 77.5 77 V -4.5 -5 H 77.5 78 V -5.5 -6 h 0.5 0.5 v 0.5 0.5 h 1 1 v 0.5 0.5 h -1 -1 v 0.5 0.5 h 1 1 V -3.5 -4 H 81.5 82 V -4.5 -5 H 81.5 81 V -5.5 -6 H 80 79 V -6.5 -7 H 79.5 80 V -7.5 -8 H 80.5 81 V -7.5 -7 H 81.5 82 V -7.5 -8 H 81.5 81 v -1 -1 H 80.5 80 v 1 1 H 79.5 79 v -1 -1 H 78.5 78 V -10.5 -11 H 77.5 77 v 0.5 0.5 h 0.5 0.5 v 1 1 H 77.5 77 V -8.5 -9 H 76.5 76 V -9.5 -10 H 75.5 75 V -10.5 -11 H 74.5 74 v 0.5 0.5 H 74.5 75 V -9.5 -9 H 74.5 74 V -8.5 -8 H 73.5 73 V -7.5 -7 H 72.5 72 V -7.5 -8 H 71.5 71 V -7.5 -7 H 70.5 70 V -6.5 -6 H 70.5 71 V -5.5 -5 H 70.5 70 V -4.5 -4 H 69.5 69 v 0.5 0.5 z m 2,-1 H 71 V -4.5 -5 H 71.5 72 V -5.5 -6 H 71.5 71 V -6.5 -7 H 71.5 72 V -6.5 -6 H 72.5 73 V -6.5 -7 H 73.5 74 V -7.5 -8 H 74.5 75 V -8.5 -9 H 75.5 76 V -8.5 -8 H 76.5 77 V -7.5 -7 H 77.5 78 V -7.5 -8 H 78.5 79 V -7.5 -7 H 78.5 78 V -6.5 -6 H 77.5 77 V -5.5 -5 H 76.5 76 V -5.5 -6 H 75.5 75 V -5.5 -5 H 74.5 74 V -4.5 -4 H 73.5 73 V -4.5 -5 H 72.5 72 v 0.5 0.5 z m 2,-1 H 74 V -5.5 -6 H 74.5 75 V -6.5 -7 H 75.5 76 V -6.5 -6 H 76.5 77 V -6.5 -7 H 76.5 76 V -7.5 -8 H 75.5 75 V -7.5 -7 H 74.5 74 V -6.5 -6 H 73.5 73 v 0.5 0.5 z m -7,-2 H 66 V -7.5 -8 h 0.5 0.5 v 0.5 0.5 z m 17,-2 H 83 v -1 -1 H 82.5 82 v -0.5 -0.5 h 0.5 0.5 v -0.5 -0.5 h 0.5 0.5 v 0.5 0.5 H 83.5 83 v 0.5 0.5 h 0.5 0.5 v 1 1 z m -17,-1 H 66 v -0.5 -0.5 h 0.5 0.5 v 0.5 0.5 z m 5,0 H 71 v -0.5 -0.5 h 0.5 0.5 v 0.5 0.5 z m 10,-3 H 81 v -0.5 -0.5 h 0.5 0.5 v -0.5 -0.5 h 0.5 0.5 v 0.5 0.5 H 82.5 82 v 0.5 0.5 z"
       id="path3677" /><path
       style="fill:#cbfe98;stroke-width:1"
       d="M 41.5,-34 H 41 v -0.5 -0.5 h 0.5 0.5 v 0.5 0.5 z"
       id="path3675" /><path
       style="fill:#a5c9ef;stroke-width:1"
       d="M 38.5,-33 H 38 v -2 -2 h 0.5 0.5 v -1 -1 h 0.5 0.5 v 1 1 H 39.5 39 v 2 2 z"
       id="path3673" /><path
       style="fill:#98fe98;stroke-width:1"
       d="M 40.5,-30 H 40 V -30.5 -31 H 39.5 39 v -0.5 -0.5 h 0.5 0.5 v -0.5 -0.5 h 0.5 0.5 v -0.5 -0.5 h 0.5 0.5 v -0.5 -0.5 h 0.5 0.5 v 1 1 h -1 -1 v 0.5 0.5 h 0.5 0.5 v 0.5 0.5 H 41.5 41 v 0.5 0.5 z m 0,-1 H 41 V -31.5 -32 H 40.5 40 v 0.5 0.5 z m 12,-2 H 52 v -0.5 -0.5 h 0.5 0.5 v 0.5 0.5 z m 3,-1 H 55 v -0.5 -0.5 h 0.5 0.5 v 0.5 0.5 z m 2,-2 H 57 v -0.5 -0.5 h 0.5 0.5 v 0.5 0.5 z m -15,-4 H 42 v -0.5 -0.5 h 0.5 0.5 v 0.5 0.5 z"
       id="path3671" /><path
       style="fill:#32fefe;stroke-width:1"
       d="M 42.5,-36 H 42 V -36.5 -37 H 42.5 43 V -37.5 -38 H 42.5 42 v -0.5 -0.5 h 0.5 0.5 v 0.5 0.5 h 0.5 0.5 v 0.5 0.5 H 43.5 43 v 0.5 0.5 z"
       id="path3669" /><path
       style="fill:#cbcb65;stroke-width:1"
       d="M 83.5,-5 H 83 V -5.5 -6 h 0.5 0.5 v 0.5 0.5 z m -1,-3 H 82 V -8.5 -9 h 0.5 0.5 v 0.5 0.5 z m -1,-2 H 81 v -0.5 -0.5 h 0.5 0.5 v 0.5 0.5 z m -1,-2 H 80 v -0.5 -0.5 h 0.5 0.5 v 0.5 0.5 z m -4,-3 H 76 V -15.5 -16 H 75.5 75 V -16.5 -17 H 74.5 74 v -0.5 -0.5 h 0.5 0.5 v 0.5 0.5 h 0.5 0.5 v 0.5 0.5 h 0.5 0.5 v 0.5 0.5 z m 7,0 H 83 v -0.5 -0.5 h 0.5 0.5 v 0.5 0.5 z"
       id="path3667" /><path
       style="fill:#65fe98;stroke-width:1"
       d="M 40.5,-29 H 40 V -29.5 -30 H 40.5 41 V -30.5 -31 H 40.5 40 v -0.5 -0.5 h 0.5 0.5 v -0.5 -0.5 h 1 1 v 1 1 H 42.5 42 v 0.5 0.5 H 41.5 41 v 0.5 0.5 z m 1,-2 H 42 V -31.5 -32 H 41.5 41 v 0.5 0.5 z"
       id="path3665" /><path
       style="fill:#32cbfe;stroke-width:1"
       d="M 46.5,-32 H 46 V -32.5 -33 H 45.5 45 V -33.5 -34 H 45.5 46 V -34.5 -35 H 45 44 V -35.5 -36 H 43.5 43 V -36.5 -37 H 42.5 42 v 0.5 0.5 H 41.5 41 v -0.5 -0.5 h 0.5 0.5 v -0.5 -0.5 h 0.5 0.5 v 0.5 0.5 h 1.5 1.5 v -0.5 -0.5 h 0.5 0.5 v -0.5 -0.5 h 0.5 0.5 v -0.5 -0.5 h 0.5 0.5 v -0.5 -0.5 h 0.5 0.5 v -0.5 -0.5 h 0.5 0.5 v 1 1 h 0.5 0.5 v -0.5 -0.5 h 0.5 0.5 v 0.5 0.5 H 52.5 52 v 0.5 0.5 H 51.5 51 v 0.5 0.5 H 50.5 50 v 0.5 0.5 H 49.5 49 v 0.5 0.5 h 0.5 0.5 v 0.5 0.5 H 49.5 49 v 0.5 0.5 H 48.5 48 v 0.5 0.5 H 47.5 47 v 0.5 0.5 z m 0,-1 H 47 V -33.5 -34 H 47.5 48 V -34.5 -35 H 48.5 49 V -35.5 -36 H 48.5 48 V -36.5 -37 H 48.5 49 V -37.5 -38 H 49.5 50 V -38.5 -39 H 50.5 51 V -39.5 -40 H 50.5 50 v 0.5 0.5 H 49.5 49 v 0.5 0.5 H 48.5 48 v 0.5 0.5 H 47.5 47 v 0.5 0.5 H 46.5 46 v 0.5 0.5 h 0.5 0.5 v 0.5 0.5 H 46.5 46 v 0.5 0.5 z m 1,-2 H 47 v -0.5 -0.5 h 0.5 0.5 v 0.5 0.5 z"
       id="path3663" /><path
       style="fill:#32cbcb;stroke-width:1"
       d="M 43.5,-35 H 43 v -0.5 -0.5 h 0.5 0.5 v 0.5 0.5 z"
       id="path3661" /><path
       style="fill:#65fe65;stroke-width:1"
       d="M 39.5,-30 H 39 v -0.5 -0.5 h 0.5 0.5 v 0.5 0.5 z"
       id="path3659" /><path
       style="fill:#0098fe;stroke-width:1"
       d="M 49.5,-29 H 49 V -29.5 -30 H 49.5 50 V -30.5 -31 H 49 48 V -31.5 -32 H 47.5 47 V -32.5 -33 H 46.5 46 v 0.5 0.5 H 45.5 45 V -32.5 -33 H 45.5 46 V -33.5 -34 H 45.5 45 v -0.5 -0.5 h 0.5 0.5 v -0.5 -0.5 h 0.5 0.5 v -0.5 -0.5 h 0.5 0.5 v -0.5 -0.5 h 0.5 0.5 v -0.5 -0.5 h 0.5 0.5 v -0.5 -0.5 h 0.5 0.5 v -0.5 -0.5 h 0.5 0.5 v 0.5 0.5 H 51.5 51 v 0.5 0.5 H 50.5 50 v 0.5 0.5 H 49.5 49 v 0.5 0.5 H 48.5 48 v 0.5 0.5 h 0.5 0.5 v 0.5 0.5 h 0.5 0.5 v -0.5 -0.5 h 0.5 0.5 v -1 -1 h 0.5 0.5 v 0.5 0.5 h 0.5 0.5 v 0.5 0.5 H 52.5 52 v 0.5 0.5 H 51.5 51 v 1.5 1.5 h 0.5 0.5 v 0.5 0.5 H 51.5 51 v 0.5 0.5 H 50.5 50 v 0.5 0.5 z m 1,-2 H 51 V -31.5 -32 H 50.5 50 v 0.5 0.5 z m -3,-2 H 48 V -33.5 -34 H 48.5 49 V -34.5 -35 H 48.5 48 V -35.5 -36 H 47.5 47 v 0.5 0.5 H 46.5 46 v 0.5 0.5 h 0.5 0.5 v 0.5 0.5 z m 0,-1 H 47 v -0.5 -0.5 h 0.5 0.5 v 0.5 0.5 z m -2,-3 H 45 v -0.5 -0.5 h 0.5 0.5 v -0.5 -0.5 h 0.5 0.5 v -0.5 -0.5 h 0.5 0.5 v -0.5 -0.5 h 0.5 0.5 v -0.5 -0.5 h 0.5 0.5 v 0.5 0.5 H 49.5 49 v 0.5 0.5 H 48.5 48 v 0.5 0.5 H 47.5 47 v 0.5 0.5 H 46.5 46 v 0.5 0.5 z m 10,-2 H 55 V -39.5 -40 H 54.5 54 v -1 -1 h 0.5 0.5 v -0.5 -0.5 h 0.5 0.5 v 0.5 0.5 h 0.5 0.5 v 1 1 H 56.5 56 v 0.5 0.5 z m 0,-1 H 56 V -40.5 -41 H 55.5 55 v 0.5 0.5 z"
       id="path3657" /><path
       style="fill:#32fe65;stroke-width:1"
       d="m 42,-28 h -1 v -1 -1 h 0.5 0.5 v -0.5 -0.5 h 0.5 0.5 v -1.5 -1.5 h 0.5 0.5 v 1.5 1.5 h 0.5 0.5 v 0.5 0.5 H 44.5 44 v 0.5 0.5 H 43.5 43 v 0.5 0.5 z m 0.5,-1 H 43 V -29.5 -30 H 43.5 44 V -30.5 -31 H 43.5 43 v 0.5 0.5 H 42.5 42 v 0.5 0.5 z m 2,-12 H 44 v -0.5 -0.5 h 0.5 0.5 v -0.5 -0.5 h 0.5 0.5 v -0.5 -0.5 h 0.5 0.5 v 0.5 0.5 H 46.5 46 v 0.5 0.5 H 45.5 45 v 0.5 0.5 z m 5.5,-3 h -1 v -0.5 -0.5 h 1 1 v 0.5 0.5 z"
       id="path3655" /><path
       style="fill:#3265fe;stroke-width:1"
       d="M 49.5,-27 H 49 V -27.5 -28 H 48.5 48 v -0.5 -0.5 h 0.5 0.5 v 0.5 0.5 h 0.5 0.5 v -1 -1 H 49.5 49 v -0.5 -0.5 h 0.5 0.5 v -0.5 -0.5 h 0.5 0.5 v -0.5 -0.5 h 0.5 0.5 v 0.5 0.5 H 51.5 51 v 0.5 0.5 h 0.5 0.5 v 1 1 h 0.5 0.5 v 0.5 0.5 H 52.5 52 v 0.5 0.5 H 51.5 51 V -27.5 -28 H 50.5 50 v 0.5 0.5 z m 2,-1 H 52 V -28.5 -29 H 51.5 51 v 0.5 0.5 z m -1,-2 H 51 V -30.5 -31 H 50.5 50 v 0.5 0.5 z m 3,-5 H 53 v -1 -1 H 53.5 54 V -37.5 -38 H 54.5 55 V -38.5 -39 H 55.5 56 V -39.5 -40 H 55.5 55 v -0.5 -0.5 h 0.5 0.5 v 0.5 0.5 h 0.5 0.5 v -1 -1 H 56.5 56 V -42.5 -43 H 55.5 55 v 0.5 0.5 H 54.5 54 v 0.5 0.5 h -1 -1 v -0.5 -0.5 h 1 1 v -0.5 -0.5 h 0.5 0.5 v -1 -1 h 0.5 0.5 v 0.5 0.5 h 0.5 0.5 v 0.5 0.5 h 0.5 0.5 v 0.5 0.5 h 0.5 0.5 v 1.5 1.5 h -1 -1 v 0.5 0.5 H 56.5 56 v 1 1 h -1 -1 v 0.5 0.5 z"
       id="path3653" /><path
       style="fill:#32cb65;stroke-width:1"
       d="M 54.5,-31 H 54 V -31.5 -32 H 53.5 53 v -1 -1 h 1 1 v 0.5 0.5 h 0.5 0.5 v 0.5 0.5 H 55.5 55 v 0.5 0.5 z m 0,-1 H 55 V -32.5 -33 H 54.5 54 v 0.5 0.5 z m 2,-2 H 56 v -0.5 -0.5 h 0.5 0.5 v -0.5 -0.5 h 0.5 0.5 v -1 -1 h 0.5 0.5 v 1 1 H 58.5 58 v 0.5 0.5 H 57.5 57 v 0.5 0.5 z"
       id="path3651" /><path
       style="fill:#32fe32;stroke-width:1"
       d="M 41.5,-27 H 41 V -27.5 -28 H 40.5 40 v -0.5 -0.5 h 0.5 0.5 v 0.5 0.5 h 0.5 0.5 v 0.5 0.5 z"
       id="path3649" /><path
       style="fill:#3232fe;stroke-width:1"
       d="M 47.5,-24 H 47 v -1 -1 h 0.5 0.5 v -1 -1 h 0.5 0.5 v -0.5 -0.5 h 0.5 0.5 v 0.5 0.5 h 0.5 0.5 v -0.5 -0.5 h 0.5 0.5 v -0.5 -0.5 h 0.5 0.5 v 0.5 0.5 h 1 1 v 0.5 0.5 h 0.5 0.5 v 1 1 H 55.5 55 v 0.5 0.5 H 54.5 54 V -25.5 -26 H 53.5 53 v 0.5 0.5 H 52.5 52 v 0.5 0.5 H 51.5 51 V -24.5 -25 H 50.5 50 v 0.5 0.5 H 49.5 49 V -24.5 -25 H 48.5 48 v 0.5 0.5 z m 2,-1 H 50 V -25.5 -26 H 49.5 49 v 0.5 0.5 z m 2,0 H 52 V -25.5 -26 H 51.5 51 v 0.5 0.5 z m 3,-1 H 55 V -26.5 -27 H 54.5 54 v 0.5 0.5 z m -5,-1 H 50 V -27.5 -28 H 49.5 49 v 0.5 0.5 z m 2,0 H 52 V -27.5 -28 H 52.5 53 V -28.5 -29 H 52.5 52 v 0.5 0.5 H 51.5 51 v 0.5 0.5 z m 6,-16 H 57 v -0.5 -0.5 h 0.5 0.5 v 0.5 0.5 z"
       id="path3647" /><path
       style="fill:#989800;stroke-width:1"
       d="M 75,-1 H 65 V -2.5 -4 H 64.5 64 V -5.5 -7 H 63.5 63 V -8.5 -10 H 62.5 62 v -1.5 -1.5 h 0.5 0.5 v -0.5 -0.5 h 1 1 v -1.5 -1.5 h 0.5 0.5 v -0.5 -0.5 h 0.5 0.5 v -0.5 -0.5 h 3.5 3.5 v 0.5 0.5 H 70.5 67 v 0.5 0.5 H 66.5 66 v 1.5 1.5 h 7.5 7.5 v 0.5 0.5 h 0.5 0.5 v 1 1 H 81.5 81 v -1 -1 h -9 -9 v 1.5 1.5 h 0.5 0.5 v 1.5 1.5 h 0.5 0.5 v 1.5 1.5 h 0.5 0.5 v 1 1 h 9 9 V -2.5 -3 h 0.5 0.5 v 1 1 z m 9.5,-5 H 84 V -7.5 -9 h 0.5 0.5 v 1.5 1.5 z m -4,-10 H 77 v -0.5 -0.5 h 3.5 3.5 v 0.5 0.5 z"
       id="path3645" /><path
       style="fill:#32cb32;stroke-width:1"
       d="m 43,-26 h -1 v -1 -1 H 42.5 43 V -28.5 -29 H 42.5 42 v -0.5 -0.5 h 0.5 0.5 v -0.5 -0.5 h 0.5 0.5 v -0.5 -0.5 h 0.5 0.5 v 0.5 0.5 H 44.5 44 v 0.5 0.5 h 1 1 v 1 1 H 45.5 45 v 0.5 0.5 H 44.5 44 v 0.5 0.5 z m 0.5,-3 H 44 V -29.5 -30 H 43.5 43 v 0.5 0.5 z m -4,1 H 39 v -1 -1 H 38.5 38 v -1.5 -1.5 h 0.5 0.5 v -0.5 -0.5 h 0.5 0.5 v -0.5 -0.5 h 0.5 0.5 v -0.5 -0.5 h 1 1 v 0.5 0.5 h -1 -1 v 0.5 0.5 H 40.5 40 v 0.5 0.5 H 39.5 39 v 1.5 1.5 h 0.5 0.5 v 1 1 z m 13,-10 H 52 v -0.5 -0.5 h 0.5 0.5 v -0.5 -0.5 h 0.5 0.5 v 0.5 0.5 H 53.5 53 v 0.5 0.5 z m -12,-1 H 40 v -1 -1 h 0.5 0.5 v -0.5 -0.5 h 0.5 0.5 v -0.5 -0.5 h 0.5 0.5 v -0.5 -0.5 h 1 1 v -0.5 -0.5 h 0.5 0.5 v -0.5 -0.5 h 4 4 v 1 1 H 53.5 53 V -44.5 -45 H 52.5 52 v 0.5 0.5 H 51.5 51 V -44.5 -45 H 48.5 46 v 0.5 0.5 H 45.5 45 v 0.5 0.5 h -1 -1 v 0.5 0.5 H 42.5 42 v 0.5 0.5 H 41.5 41 v 1 1 z m 3.5,-1 h -1 v -0.5 -0.5 h 1 1 v -0.5 -0.5 h 0.5 0.5 v -0.5 -0.5 h 0.5 0.5 v -0.5 -0.5 h 1.5 1.5 v 0.5 0.5 h -1 -1 v 0.5 0.5 h -1 -1 v 0.5 0.5 H 45.5 45 v 0.5 0.5 z"
       id="path3643" /><path
       style="fill:#7f7f00;stroke-width:1"
       d="M 84.5,-9 H 84 v -3 -3 h 0.5 0.5 v 3 3 z"
       id="path3639" /><path
       style="fill:#32cb00;stroke-width:1"
       d="M 45.5,-30 H 45 v -0.5 -0.5 h 0.5 0.5 v 0.5 0.5 z"
       id="path3637" /><path
       style="fill:#0032cb;stroke-width:1"
       d="M 50.5,-23 H 47 V -23.5 -24 H 46.5 46 v -0.5 -0.5 h 0.5 0.5 v 0.5 0.5 h 0.5 0.5 v -0.5 -0.5 h 0.5 0.5 v -0.5 -0.5 h 0.5 0.5 v 0.5 0.5 h 0.5 0.5 v -0.5 -0.5 h 0.5 0.5 v 0.5 0.5 h 0.5 0.5 v -0.5 -0.5 h 0.5 0.5 v -0.5 -0.5 h 0.5 0.5 v 0.5 0.5 h 0.5 0.5 v -0.5 -0.5 h 1 1 v 1 1 h -1 -1 v 0.5 0.5 h -1 -1 v 0.5 0.5 z m -1,-1 H 50 V -24.5 -25 H 49.5 49 v 0.5 0.5 z m 2,0 H 52 V -24.5 -25 H 51.5 51 v 0.5 0.5 z m 3,-1 H 55 V -25.5 -26 H 54.5 54 v 0.5 0.5 z m 5,-15 H 59 v -1 -1 H 58.5 58 v -0.5 -0.5 h 0.5 0.5 v 0.5 0.5 h 0.5 0.5 v 1 1 z"
       id="path3635" /><path
       style="fill:#329800;stroke-width:1"
       d="m 44,-25 h -1 v -0.5 -0.5 h 0.5 0.5 v -0.5 -0.5 h 0.5 0.5 v -0.5 -0.5 h 0.5 0.5 v -1.5 -1.5 h 0.5 0.5 v 2 2 H 46.5 46 v 0.5 0.5 H 45.5 45 v 0.5 0.5 z m -2.5,-1 H 41 V -26.5 -27 H 40.5 40 v -0.5 -0.5 h 0.5 0.5 v 0.5 0.5 h 0.5 0.5 v 0.5 0.5 z m 13,-4 H 53 v -1 -1 h 0.5 0.5 v -0.5 -0.5 h 0.5 0.5 v -0.5 -0.5 h 1 1 v -0.5 -0.5 h 0.5 0.5 v -0.5 -0.5 h 0.5 0.5 v -1.5 -1.5 h 0.5 0.5 v 2 2 H 59.5 59 v 0.5 0.5 H 58.5 58 v 1 1 H 57.5 57 v 0.5 0.5 H 56.5 56 v 0.5 0.5 z m 0.5,-1 h 1 v -0.5 -0.5 h 0.5 0.5 v -0.5 -0.5 h -1 -1 v 0.5 0.5 H 54.5 54 v 0.5 0.5 z M 44.5,-38 H 44 V -38.5 -39 H 43.5 43 v -0.5 -0.5 h 1 1 v -0.5 -0.5 h 0.5 0.5 v -0.5 -0.5 h 1 1 v -0.5 -0.5 h 0.5 0.5 v 0.5 0.5 H 48.5 48 v 0.5 0.5 H 47.5 47 v 0.5 0.5 H 46.5 46 v 0.5 0.5 H 45.5 45 v 0.5 0.5 z m 7,-4 H 51 V -42.5 -43 H 50.5 50 v -0.5 -0.5 h 1 1 v -0.5 -0.5 h 0.5 0.5 v 0.5 0.5 h 0.5 0.5 v -0.5 -0.5 h 0.5 0.5 v 0.5 0.5 H 54.5 54 v 0.5 0.5 h -1 -1 v 0.5 0.5 z"
       id="path3633" /><path
       style="fill:#003298;stroke-width:1"
       d="M 45.5,-24 H 45 v -0.5 -0.5 h 0.5 0.5 v -0.5 -0.5 h 0.5 0.5 v 0.5 0.5 H 46.5 46 v 0.5 0.5 z"
       id="path3631" /><path
       style="fill:#009800;stroke-width:1"
       d="M 42.5,-25 H 42 v -0.5 -0.5 h 0.5 0.5 v 0.5 0.5 z"
       id="path3629" /><path
       style="fill:#326500;stroke-width:1"
       d="M 58.5,-27 H 58 V -27.5 -28 H 57.5 57 V -28.5 -29 H 56.5 56 v -0.5 -0.5 h 0.5 0.5 v -0.5 -0.5 h 0.5 0.5 v -0.5 -0.5 h 0.5 0.5 v -0.5 -0.5 h 0.5 0.5 v -2.5 -2.5 h 0.5 0.5 v 3.5 3.5 H 60.5 60 v 1 1 H 59.5 59 v 1 1 z m -1,-2 H 58 V -29.5 -30 H 58.5 59 V -30.5 -31 H 58.5 58 v 0.5 0.5 H 57.5 57 v 0.5 0.5 z m -9.5,0 h -1 v -1.5 -1.5 h 0.5 0.5 v 0.5 0.5 h 0.5 0.5 v 1 1 z m 4.5,-2 H 52 v -1 -1 h 0.5 0.5 v 1 1 z m -2,-5 H 50 v -1 -1 h 0.5 0.5 v 1 1 z m -6,-1 H 44 V -37.5 -38 H 43.5 43 v -0.5 -0.5 h -1 -1 v -0.5 -0.5 h 1 1 v 0.5 0.5 h 0.5 0.5 v 0.5 0.5 h 0.5 0.5 v -0.5 -0.5 h 0.5 0.5 v -0.5 -0.5 h 0.5 0.5 v -0.5 -0.5 h 0.5 0.5 v -0.5 -0.5 h 0.5 0.5 v -0.5 -0.5 h 1 1 v 0.5 0.5 h 0.5 0.5 v -0.5 -0.5 h 1 1 v -0.5 -0.5 h 0.5 0.5 v 0.5 0.5 H 54.5 54 v 0.5 0.5 h -1 -1 v 0.5 0.5 H 51.5 51 v -0.5 -0.5 h -1 -1 v 0.5 0.5 H 48.5 48 v 0.5 0.5 H 47.5 47 v 0.5 0.5 H 46.5 46 v 0.5 0.5 H 45.5 45 v 0.5 0.5 z m 9,0 H 53 v -1 -1 h 1 1 v 0.5 0.5 H 54.5 54 v 0.5 0.5 z"
       id="path3627" /><path
       style="fill:#006532;stroke-width:1"
       d="M 59.5,-39 H 59 v -0.5 -0.5 h 0.5 0.5 v 0.5 0.5 z"
       id="path3625" /><path
       style="fill:#007f00;stroke-width:1"
       d="M 56.5,-28 H 56 V -28.5 -29 H 55.5 55 V -29.5 -30 H 55.5 56 V -30.5 -31 H 55.5 55 v -0.5 -0.5 h 0.5 0.5 v -0.5 -0.5 h 0.5 0.5 v 0.5 0.5 h 0.5 0.5 v -1 -1 h 0.5 0.5 v -0.5 -0.5 h 0.5 0.5 v 1 1 H 59.5 59 v 0.5 0.5 H 58.5 58 v 0.5 0.5 h 0.5 0.5 v 0.5 0.5 H 58.5 58 v 0.5 0.5 H 57.5 57 v 0.5 0.5 z m 0,-1 H 57 V -29.5 -30 H 57.5 58 V -30.5 -31 H 57.5 57 V -31.5 -32 H 56.5 56 v 0.5 0.5 h 0.5 0.5 v 0.5 0.5 H 56.5 56 v 0.5 0.5 z m -5,-4 H 51 v -1 -1 h 0.5 0.5 v -0.5 -0.5 h 0.5 0.5 v 0.5 0.5 h 0.5 0.5 v -0.5 -0.5 h 1 1 v -1 -1 h 0.5 0.5 v -0.5 -0.5 h 1 1 v 0.5 0.5 h -1 -1 v 1 1 H 56.5 56 v 0.5 0.5 h -1 -1 v 0.5 0.5 H 53.5 53 V -34.5 -35 H 52.5 52 v 1 1 z m -2,-3 H 49 v -0.5 -0.5 h 0.5 0.5 v 0.5 0.5 z m 3,-1 H 52 V -37.5 -38 H 51.5 51 v -0.5 -0.5 h 0.5 0.5 v -0.5 -0.5 h 0.5 0.5 v -0.5 -0.5 h 0.5 0.5 v 0.5 0.5 h 0.5 0.5 v 0.5 0.5 H 54.5 54 V -39.5 -40 H 53.5 53 v 0.5 0.5 H 52.5 52 v 0.5 0.5 h 0.5 0.5 v 0.5 0.5 z"
       id="path3623" /><path
       style="fill:#006500;stroke-width:1"
       d="M 41.5,-25 H 41 V -25.5 -26 H 40.5 40 v -0.5 -0.5 h 0.5 0.5 v 0.5 0.5 h 0.5 0.5 v 0.5 0.5 z M 46,-31 H 45 V -31.5 -32 H 44.5 44 v -1 -1 H 43.5 43 v -0.5 -0.5 h 1 1 v 1.5 1.5 h 1 1 v 0.5 0.5 z"
       id="path3621" /><path
       style="fill:#000065;stroke-width:1"
       d="M 46.5,-23 H 46 v -0.5 -0.5 h 0.5 0.5 v 0.5 0.5 z"
       id="path3619" /><path
       style="fill:#003200;stroke-width:1"
       d="M 43.5,-24 H 42 v -0.5 -0.5 h 1.5 1.5 v -0.5 -0.5 h 0.5 0.5 v -0.5 -0.5 h 0.5 0.5 v -1 -1 h 0.5 0.5 v 1.5 1.5 h -1 -1 v 0.5 0.5 H 45.5 45 v 0.5 0.5 z m 15,-2 H 58 V -26.5 -27 H 57 56 V -27.5 -28 H 55.5 55 V -28.5 -29 H 54 53 V -29.5 -30 H 52.5 52 v -0.5 -0.5 h 0.5 0.5 v 0.5 0.5 h 1 1 v 0.5 0.5 h 0.5 0.5 v 0.5 0.5 h 1 1 v 0.5 0.5 h 0.5 0.5 v 0.5 0.5 z m 1,-2 H 59 v -0.5 -0.5 h 0.5 0.5 v 0.5 0.5 z m 1,-2 H 60 v -0.5 -0.5 h 0.5 0.5 v 0.5 0.5 z"
       id="path3617" /><path
       style="fill:#030303;stroke-width:1"
       d="M 75.5,0 H 66 V -0.5 -1 H 75.5 85 V -2 -3 H 84.5 84 V -4.5 -6 H 83.5 83 V -7.5 -9 H 83.5 84 V -7.5 -6 H 84.5 85 V -7.5 -9 h 0.5 0.5 v 4 4 H 85.5 85 V -0.5 0 Z M 50,-22 h -4 v -0.5 -0.5 h -1 -1 v -0.5 -0.5 h 1 1 v 0.5 0.5 h 4 4 v -0.5 -0.5 h 1 1 v -0.5 -0.5 h 1 1 v -0.5 -0.5 h 0.5 0.5 v -1 -1 h 0.5 0.5 v -1 -1 h 0.5 0.5 v -4 -4 H 60.5 60 v -1 -1 h 0.5 0.5 v 1 1 h 0.5 0.5 v 4 4 H 61.5 61 v 1 1 H 60.5 60 v 1 1 H 59.5 59 v 0.5 0.5 H 58.5 58 v 0.5 0.5 h -1 -1 v 0.5 0.5 h -1 -1 v 0.5 0.5 z"
       id="path3615" /><path
       style="fill:#000000;stroke-width:1"
       d="M 82.5,-9 H 82 v -1 -1 h 0.5 0.5 v 1 1 z m 3,0 H 85 v -3 -3 H 84.5 84 v -0.5 -0.5 h 0.5 0.5 v 0.5 0.5 h 0.5 0.5 v 3 3 z m -9,-7 H 76 V -16.5 -17 H 75.5 75 V -17.5 -18 H 74.5 74 v -0.5 -0.5 h 0.5 0.5 v 0.5 0.5 h 0.5 0.5 v 0.5 0.5 h 0.5 0.5 v 0.5 0.5 z"
       id="path3613" /></g></svg>
