<?xml version="1.0" encoding="UTF-8" standalone="no"?>
<!-- Created with Inkscape (http://www.inkscape.org/) -->

<svg
   version="1.1"
   id="svg2"
   width="16"
   height="16"
   viewBox="0 0 16 16"
   sodipodi:docname="edit-find-replace.svg"
   xml:space="preserve"
   inkscape:version="1.2.2 (b0a8486541, 2022-12-01)"
   xmlns:inkscape="http://www.inkscape.org/namespaces/inkscape"
   xmlns:sodipodi="http://sodipodi.sourceforge.net/DTD/sodipodi-0.dtd"
   xmlns:xlink="http://www.w3.org/1999/xlink"
   xmlns="http://www.w3.org/2000/svg"
   xmlns:svg="http://www.w3.org/2000/svg"><defs
     id="defs6"><linearGradient
       inkscape:collect="always"
       id="linearGradient2054"><stop
         style="stop-color:#00ffff;stop-opacity:1;"
         offset="0"
         id="stop2052" /><stop
         style="stop-color:#ffffff;stop-opacity:1;"
         offset="1"
         id="stop2050" /></linearGradient><inkscape:path-effect
       effect="fillet_chamfer"
       id="path-effect429"
       is_visible="true"
       lpeversion="1"
       nodesatellites_param="F,0,0,1,0,0,0,1 @ F,0,0,1,0,0,0,1 @ F,0,0,1,0,1,0,1 @ F,0,0,1,0,0,0,1 @ F,0,0,1,0,0,0,1 @ F,0,0,1,0,0,0,1 @ F,0,0,1,0,0,0,1 @ F,0,0,1,0,0,0,1 @ F,0,0,1,0,2,0,1"
       unit="px"
       method="auto"
       mode="F"
       radius="0"
       chamfer_steps="1"
       flexible="false"
       use_knot_distance="true"
       apply_no_radius="true"
       apply_with_radius="true"
       only_selected="false"
       hide_knots="false" /><inkscape:path-effect
       effect="fillet_chamfer"
       id="path-effect423"
       is_visible="true"
       lpeversion="1"
       nodesatellites_param="F,0,0,1,0,0,0,1 @ F,0,0,1,0,0,0,1 @ F,0,0,1,0,1,0,1 @ F,0,0,1,0,0,0,1 @ F,0,0,1,0,0,0,1 @ F,0,0,1,0,0,0,1 @ F,0,0,1,0,0,0,1 @ F,0,0,1,0,0,0,1 @ F,0,0,1,0,2,0,1"
       unit="px"
       method="auto"
       mode="F"
       radius="0"
       chamfer_steps="1"
       flexible="false"
       use_knot_distance="true"
       apply_no_radius="true"
       apply_with_radius="true"
       only_selected="false"
       hide_knots="false" /><inkscape:path-effect
       effect="fillet_chamfer"
       id="path-effect531"
       is_visible="true"
       lpeversion="1"
       nodesatellites_param="F,0,0,1,0,0,0,1 @ F,0,0,1,0,0,0,1 @ F,0,0,1,0,0,0,1 @ F,0,0,1,0,0,0,1 @ F,0,0,1,0,0,0,1 @ F,0,0,1,0,2,0,1 @ F,0,0,1,0,0,0,1 @ F,0,0,1,0,0,0,1 @ F,0,0,1,0,0,0,1 @ F,0,0,1,0,0,0,1 @ F,0,0,1,0,0,0,1 @ F,0,0,1,0,0,0,1 @ F,0,0,1,0,0,0,1 @ F,0,0,1,0,0,0,1 @ F,0,0,1,0,2,0,1 @ F,0,0,1,0,0,0,1"
       unit="px"
       method="auto"
       mode="F"
       radius="0"
       chamfer_steps="1"
       flexible="false"
       use_knot_distance="true"
       apply_no_radius="true"
       apply_with_radius="true"
       only_selected="false"
       hide_knots="false" /><radialGradient
       inkscape:collect="always"
       xlink:href="#linearGradient2054"
       id="radialGradient6335"
       cx="3.5"
       cy="8.5"
       fx="3.5"
       fy="8.5"
       r="1"
       gradientUnits="userSpaceOnUse"
       gradientTransform="matrix(0.5,-0.5,0.5,0.5,-2.5,6)" /></defs><style
     id="current-color-scheme">.ColorScheme-Text { color:#232629; }
.ColorScheme-Highlight { color:#3daee9; }
.ColorScheme-NegativeText { color:#da4453; }
.ColorScheme-NeutralText { color:#f67400; }
.ColorScheme-PositiveText { color:#27ae60; }</style><sodipodi:namedview
     id="namedview4"
     pagecolor="#ffeee5"
     bordercolor="#000000"
     borderopacity="0.25"
     inkscape:showpageshadow="2"
     inkscape:pageopacity="0"
     inkscape:pagecheckerboard="0"
     inkscape:deskcolor="#d1d1d1"
     showgrid="true"
     inkscape:zoom="55.200556"
     inkscape:cx="7.9981079"
     inkscape:cy="7.4999245"
     inkscape:window-width="1920"
     inkscape:window-height="1010"
     inkscape:window-x="0"
     inkscape:window-y="0"
     inkscape:window-maximized="1"
     inkscape:current-layer="svg2"><inkscape:grid
       type="xygrid"
       id="grid248"
       spacingx="0.5"
       spacingy="0.5" /></sodipodi:namedview><path
     style="fill:currentColor;stroke-width:1"
     d="m 7,11 c -0.2652012,4e-5 -0.5195258,0.105423 -0.7070313,0.292969 -0.3904233,0.390507 -0.3904233,1.023555 0,1.414062 l 2.0000001,2 c 0.390507,0.390424 1.0235555,0.390424 1.4140625,0 0.3904237,-0.390507 0.3904237,-1.023555 0,-1.414062 l -2.0000001,-2 C 7.5195257,11.105423 7.2652012,11.00004 7,11 Z"
     id="path1270"
     class="ColorScheme-Highlight"
     sodipodi:nodetypes="cscccccc" /><path
     style="fill:currentColor;stroke-width:1"
     d="M 4,5 C 1.7967855,5 0,6.7967855 0,9 0,11.203214 1.7967855,13 4,13 6.2032145,13 8,11.203214 8,9 8,6.7967855 6.2032145,5 4,5 Z M 4,6 C 5.6627749,6 7,7.3372251 7,9 7,10.662775 5.6627749,12 4,12 2.3372251,12 1,10.662775 1,9 1,7.3372251 2.3372251,6 4,6 Z"
     id="rect618"
     class="ColorScheme-Text"
     sodipodi:nodetypes="ssssssssss" /><path
     id="path425"
     style="fill:currentColor;stroke-width:1"
     class="ColorScheme-NeutralText"
     d="M 16,6 H 15 V 8 A 1,1 135 0 1 14,9 H 13 V 7 l -3,2.5 3,2.5 v -2 h 1 A 2,2 135 0 0 16,8 Z M 9,6 h 1 V 4 a 1,1 0 0 1 1,-1 h 1 V 5 L 15,2.5 12,0 V 2 H 11 A 2,2 0 0 0 9,4 Z" /><circle
     style="opacity:1;fill:none;stroke:none;stroke-width:2;stroke-linecap:round;stroke-linejoin:round;stroke-dasharray:none;paint-order:stroke fill markers;stop-color:#000000"
     id="path1418"
     cx="3"
     cy="8"
     r="1" /><circle
     style="opacity:1;fill:url(#radialGradient6335);fill-opacity:1;stroke:none;stroke-width:1;stroke-linecap:round;stroke-linejoin:round;stroke-dasharray:none;paint-order:stroke fill markers;stop-color:#000000"
     id="path1980"
     cx="3"
     cy="8"
     r="1" /></svg>
