<?xml version="1.0" encoding="UTF-8" standalone="no"?>
<!-- Created with Inkscape (http://www.inkscape.org/) -->

<svg
   version="1.1"
   id="svg4538"
   width="16"
   height="16"
   viewBox="0 0 16 16"
   sodipodi:docname="zoom-fit-best.svg"
   xml:space="preserve"
   inkscape:version="1.2.2 (b0a8486541, 2022-12-01)"
   xmlns:inkscape="http://www.inkscape.org/namespaces/inkscape"
   xmlns:sodipodi="http://sodipodi.sourceforge.net/DTD/sodipodi-0.dtd"
   xmlns="http://www.w3.org/2000/svg"
   xmlns:svg="http://www.w3.org/2000/svg"><defs
     id="defs4542"><style
       id="current-color-scheme">.ColorScheme-Text { color:#232629; }
.ColorScheme-Highlight { color:#3daee9; }
.ColorScheme-NegativeText { color:#da4453; }
.ColorScheme-NeutralText { color:#f67400; }
.ColorScheme-PositiveText { color:#27ae60; }</style></defs><sodipodi:namedview
     id="namedview4540"
     pagecolor="#505050"
     bordercolor="#ffffff"
     borderopacity="1"
     inkscape:showpageshadow="0"
     inkscape:pageopacity="0"
     inkscape:pagecheckerboard="1"
     inkscape:deskcolor="#505050"
     showgrid="true"
     inkscape:zoom="45.254834"
     inkscape:cx="8.8167377"
     inkscape:cy="10.197806"
     inkscape:current-layer="g4544"
     inkscape:window-width="1920"
     inkscape:window-height="1009"
     inkscape:window-x="0"
     inkscape:window-y="0"
     inkscape:window-maximized="1"><inkscape:grid
       type="xygrid"
       id="grid5417" /></sodipodi:namedview><g
     inkscape:groupmode="layer"
     inkscape:label="Image"
     id="g4544"><path
       style="fill:currentColor;stroke-linecap:round;stroke-linejoin:round;-inkscape-stroke:none"
       d="M 6,0 C 2.6922171,0 0,2.6922171 0,6 c 0,3.3077829 2.6922171,6 6,6 1.4709465,0 2.7734901,-0.592449 3.8183594,-1.474609 l 2.8281246,2.828125 a 0.5,0.5 0 0 0 0.707032,0 0.5,0.5 0 0 0 0,-0.707032 L 10.525391,9.8183594 C 11.407551,8.7734901 12,7.4709465 12,6 12,2.6922171 9.3077829,0 6,0 Z m 0,1 c 2.7673433,0 5,2.2326567 5,5 0,2.7673433 -2.2326567,5 -5,5 C 3.2326567,11 1,8.7673433 1,6 1,3.2326567 3.2326567,1 6,1 Z"
       id="path1565"
       class="ColorScheme-Text" /><path
       id="rect544"
       style="fill:currentColor;stroke-linecap:round;stroke-linejoin:round;"
       class="ColorScheme-Highlight"
       d="M 3 3 L 3 5 L 4 5 L 4 4 L 5 4 L 5 3 L 3 3 z M 7 3 L 7 4 L 8 4 L 8 5 L 9 5 L 9 3 L 7 3 z M 3 7 L 3 9 L 5 9 L 5 8 L 4 8 L 4 7 L 3 7 z M 8 7 L 8 8 L 7 8 L 7 9 L 9 9 L 9 7 L 8 7 z M 12 11 A 1 1 0 0 0 11.292969 11.292969 A 1 1 0 0 0 11.292969 12.707031 L 13.292969 14.707031 A 1 1 0 0 0 14.707031 14.707031 A 1 1 0 0 0 14.707031 13.292969 L 12.707031 11.292969 A 1 1 0 0 0 12 11 z " /></g></svg>
