<?xml version="1.0" encoding="UTF-8" standalone="no"?>
<!-- Created with Inkscape (http://www.inkscape.org/) -->

<svg
   version="1.1"
   id="svg4538"
   width="16"
   height="16"
   viewBox="0 0 16 16"
   sodipodi:docname="zoom-in.svg"
   xml:space="preserve"
   inkscape:version="1.2.2 (b0a8486541, 2022-12-01)"
   xmlns:inkscape="http://www.inkscape.org/namespaces/inkscape"
   xmlns:sodipodi="http://sodipodi.sourceforge.net/DTD/sodipodi-0.dtd"
   xmlns="http://www.w3.org/2000/svg"
   xmlns:svg="http://www.w3.org/2000/svg"><defs
     id="defs4542"><style
       id="current-color-scheme">.ColorScheme-Text { color:#232629; }
.ColorScheme-Highlight { color:#3daee9; }
.ColorScheme-NegativeText { color:#da4453; }
.ColorScheme-NeutralText { color:#f67400; }
.ColorScheme-PositiveText { color:#27ae60; }</style></defs><sodipodi:namedview
     id="namedview4540"
     pagecolor="#505050"
     bordercolor="#ffffff"
     borderopacity="1"
     inkscape:showpageshadow="0"
     inkscape:pageopacity="0"
     inkscape:pagecheckerboard="1"
     inkscape:deskcolor="#505050"
     showgrid="true"
     inkscape:zoom="38.993704"
     inkscape:cx="2.9748392"
     inkscape:cy="7.9115336"
     inkscape:current-layer="g4544"
     inkscape:window-width="1920"
     inkscape:window-height="1009"
     inkscape:window-x="0"
     inkscape:window-y="0"
     inkscape:window-maximized="1"><inkscape:grid
       type="xygrid"
       id="grid5417" /></sodipodi:namedview><g
     inkscape:groupmode="layer"
     inkscape:label="Image"
     id="g4544"><path
       id="path1565"
       style="fill:currentColor;stroke-linecap:round;stroke-linejoin:round;-inkscape-stroke:none"
       d="M 6,0 C 2.6922204,0 0,2.6922204 0,6 c 0,3.3077796 2.6922204,6 6,6 1.4714252,0 2.7809147,-0.583896 3.8242188,-1.46875 L 9.8964848,10.60352 10.5,11.207035 12.646484,13.35352 a 0.5,0.5 0 0 0 0.707032,0 0.5,0.5 0 0 0 0,-0.707032 L 11.207031,10.5 10.603516,9.8964844 10.53125,9.8242188 C 11.416104,8.7809147 12,7.4714252 12,6 12,2.6922204 9.3077796,0 6,0 Z m 0,1 c 2.7673405,0 5,2.2326595 5,5 0,2.7673405 -2.2326595,5 -5,5 C 3.2326595,11 1,8.7673405 1,6 1,3.2326595 3.2326595,1 6,1 Z"
       class="ColorScheme-Text" /><path
       id="rect544"
       style="fill:currentColor;fill-opacity:1;stroke:none;stroke-width:1;stroke-linecap:round;stroke-linejoin:round;stroke-dasharray:none"
       class="ColorScheme-Highlight"
       d="M 5 3 L 5 5 L 3 5 L 3 7 L 5 7 L 5 9 L 7 9 L 7 7 L 9 7 L 9 5 L 7 5 L 7 3 L 5 3 z M 12 11 C 11.734799 11.00004 11.480474 11.105423 11.292969 11.292969 C 10.902546 11.683475 10.902546 12.316525 11.292969 12.707031 L 13.292969 14.707031 C 13.683475 15.097454 14.316525 15.097454 14.707031 14.707031 C 15.097454 14.316525 15.097454 13.683475 14.707031 13.292969 L 12.707031 11.292969 C 12.519526 11.105423 12.265201 11.00004 12 11 z " /></g></svg>
