<?xml version="1.0" encoding="UTF-8" standalone="no"?>
<!-- Created with Inkscape (http://www.inkscape.org/) -->

<svg
   version="1.1"
   id="svg2"
   width="24"
   height="24"
   viewBox="0 0 24 24"
   sodipodi:docname="download.svg"
   xml:space="preserve"
   inkscape:version="1.2.2 (b0a8486541, 2022-12-01)"
   xmlns:inkscape="http://www.inkscape.org/namespaces/inkscape"
   xmlns:sodipodi="http://sodipodi.sourceforge.net/DTD/sodipodi-0.dtd"
   xmlns="http://www.w3.org/2000/svg"
   xmlns:svg="http://www.w3.org/2000/svg"><defs
     id="defs6"><inkscape:path-effect
       effect="fillet_chamfer"
       id="path-effect531"
       is_visible="true"
       lpeversion="1"
       nodesatellites_param="F,0,0,1,0,0,0,1 @ F,0,0,1,0,0,0,1 @ F,0,0,1,0,0,0,1 @ F,0,0,1,0,0,0,1 @ F,0,0,1,0,0,0,1 @ F,0,0,1,0,2,0,1 @ F,0,0,1,0,0,0,1 @ F,0,0,1,0,0,0,1 @ F,0,0,1,0,0,0,1 @ F,0,0,1,0,0,0,1 @ F,0,0,1,0,0,0,1 @ F,0,0,1,0,0,0,1 @ F,0,0,1,0,0,0,1 @ F,0,0,1,0,0,0,1 @ F,0,0,1,0,2,0,1 @ F,0,0,1,0,0,0,1"
       unit="px"
       method="auto"
       mode="F"
       radius="0"
       chamfer_steps="1"
       flexible="false"
       use_knot_distance="true"
       apply_no_radius="true"
       apply_with_radius="true"
       only_selected="false"
       hide_knots="false" /></defs><style
     id="current-color-scheme">.ColorScheme-Text { color:#232629; }
.ColorScheme-Highlight { color:#3daee9; }
.ColorScheme-NegativeText { color:#da4453; }
.ColorScheme-NeutralText { color:#f67400; }
.ColorScheme-PositiveText { color:#27ae60; }</style><sodipodi:namedview
     id="namedview4"
     pagecolor="#ffeee5"
     bordercolor="#000000"
     borderopacity="0.25"
     inkscape:showpageshadow="2"
     inkscape:pageopacity="0"
     inkscape:pagecheckerboard="0"
     inkscape:deskcolor="#d1d1d1"
     showgrid="true"
     inkscape:zoom="18.818182"
     inkscape:cx="16.925121"
     inkscape:cy="11.371981"
     inkscape:window-width="1920"
     inkscape:window-height="1010"
     inkscape:window-x="0"
     inkscape:window-y="0"
     inkscape:window-maximized="1"
     inkscape:current-layer="svg2"><inkscape:grid
       type="xygrid"
       id="grid248"
       spacingx="0.5"
       spacingy="0.5"
       empspacing="4"
       originx="8"
       originy="6" /></sodipodi:namedview><path
     style="fill:currentColor;stroke-width:2;-inkscape-stroke:none;paint-order:stroke fill markers"
     d="m 16,4 h 2 v 4 h -2 z m 3,8 h -1 v -1 h 6 v 1 h -1 v 1 h -1 v 1 h -2 v -1 h -1 z m 0,-8 h 1 v 1 h 1 v 1 h 1 v 1 h 1 v 1 h -4 z m 4,5 v 1 H 19 V 9 Z M 13,4 h 2 v 4 h -2 z"
     id="path4905"
     class="ColorScheme-Highlight"
     sodipodi:nodetypes="ccccccccccccccccccccccccccccccccccccccc" /><g
     id="g1222"
     transform="translate(16,2)"><path
       style="fill:#f7f7f7;stroke-width:1"
       d="M -1.5,20 H -2 V 19 18 H -2.5 -3 V 17 16 H 1 5 V 16.5 17 H 1.5 -2 v 0.5 0.5 h 0.5 0.5 v 1 1 z m 0,-5 H -2 V 14 13 H 0 2 V 13.5 14 H 4 6 V 14.5 15 H 4 2 V 14.5 14 H 0.5 -1 v 0.5 0.5 z"
       id="path1262" /><path
       style="fill:#cbfecb;stroke-width:1"
       d="M -14.5,6 H -15 V 5.5 5 h 0.5 0.5 V 5.5 6 Z m 8,-1 H -7 V 4.5 4 H -6.5 -6 V 4.5 5 Z m -8,-1 H -15 V 3 2 h 0.5 0.5 V 1 0 h 1 1 V -0.5 -1 h 1 1 V -0.5 0 h -1 -1 V 0.5 1 H -12.5 -13 V 1.5 2 h -0.5 -0.5 v 1 1 z"
       id="path1260" /><path
       style="fill:#fefe98;stroke-width:1"
       d="M -0.5,20 H -1 V 19 18 H -1.5 -2 V 17.5 17 H -1.5 -1 V 17.5 18 H -0.5 0 V 17.5 17 H 1 2 V 17.5 18 H 2.5 3 V 17.5 17 H 3.5 4 V 17.5 18 H 3.5 3 V 18.5 19 H 3.5 4 V 19.5 20 H 3.5 3 V 19.5 19 H 2.5 2 V 19.5 20 H 1.5 1 V 19.5 19 H 0.5 0 v 0.5 0.5 z m 2,-1 H 2 V 18.5 18 H 1.5 1 v 0.5 0.5 z m 4,-3 H 5 V 15.5 15 H 5.5 6 v 0.5 0.5 z m -5,-1 H -1 V 14.5 14 H 0.5 2 v 0.5 0.5 z"
       id="path1258" /><path
       style="fill:#fecb98;stroke-width:1"
       d="M 0.5,20 H 0 V 19.5 19 H 0.5 1 V 18.5 18 H 1.5 2 V 17.5 17 H 2.5 3 V 17.5 18 H 3.5 4 V 17.5 17 H 4.5 5 V 18.5 20 H 4.5 4 V 19.5 19 H 3.5 3 V 19.5 20 H 2.5 2 V 19.5 19 H 1.5 1 v 0.5 0.5 z m 2,-1 H 3 V 18.5 18 H 2.5 2 v 0.5 0.5 z m -3,-1 H -1 V 17.5 17 H -0.5 0 v 0.5 0.5 z"
       id="path1256" /><path
       style="fill:#cbcb65;stroke-width:1"
       d="M 5.5,20 H 5 V 19.5 19 H 5.5 6 v 0.5 0.5 z m 1,-2 H 6 V 16 14 H 6.5 7 v 2 2 z"
       id="path1254" /><path
       style="fill:#32cbfe;stroke-width:1"
       d="M -10.5,6 H -11 V 5.5 5 H -11.5 -12 V 4.5 4 h 0.5 0.5 V 3.5 3 h 0.5 0.5 V 2.5 2 H -9.5 -9 V 1.5 1 h 0.5 0.5 v 1 1 h -1 -1 V 3.5 4 H -9.5 -9 V 4.5 5 H -9.5 -10 V 5.5 6 Z m 0,-1 H -10 V 4.5 4 H -10.5 -11 V 4.5 5 Z"
       id="path1252" /><path
       style="fill:#0098fe;stroke-width:1"
       d="M -9.5,7 H -10 V 6 5 H -10.5 -11 V 5.5 6 H -11.5 -12 V 5.5 5 H -12.5 -13 V 4.5 4 H -13.5 -14 V 3.5 3 h 1 1 v 1 1 h 0.5 0.5 V 4.5 4 h 0.5 0.5 V 3.5 3 h 1 1 V 2 1 H -7.5 -7 V 1.5 2 H -6.5 -6 V 2.5 3 H -7 -8 V 4 5 H -8.5 -9 v 1 1 z m 0,-2 H -9 V 4.5 4 H -9.5 -10 V 4.5 5 Z m 0,-3 H -10 V 1.5 1 H -9.5 -9 V 1.5 2 Z"
       id="path1250" /><path
       style="fill:#3265fe;stroke-width:1"
       d="M -9.5,8 H -11 V 7 6 h 0.5 0.5 V 6.5 7 H -9.5 -9 V 6.5 6 h 0.5 0.5 v 1 1 z m -6,-3 H -16 V 3.5 2 h 0.5 0.5 V 3.5 5 Z m 4,-1 H -12 V 3.5 3 h 0.5 0.5 V 2.5 2 h 0.5 0.5 V 2.5 3 H -10.5 -11 V 3.5 4 Z m 4,0 H -8 V 3.5 3 H -7.5 -7 V 3.5 4 Z m 1,-2 H -7 V 1.5 1 H -7.5 -8 V 0.5 0 H -7.5 -7 V -0.5 -1 H -6.5 -6 V 0.5 2 Z"
       id="path1248" /><path
       style="fill:#65cb32;stroke-width:1"
       d="M -12.5,2 H -13 V 1.5 1 h 0.5 0.5 V 0.5 0 h 0.5 0.5 V 0.5 1 H -11.5 -12 V 1.5 2 Z"
       id="path1246" /><path
       style="fill:#3232fe;stroke-width:1"
       d="M -11.5,9 H -12 V 8.5 8 h 0.5 0.5 V 8.5 9 Z m 2,0 H -10 V 8.5 8 H -9.5 -9 V 8.5 9 Z m 3,-1 H -7 V 7.5 7 H -6.5 -6 V 7.5 8 Z"
       id="path1244" /><path
       style="fill:#989800;stroke-width:1"
       d="M -2.5,15 H -3 V 14 13 H -2.5 -2 V 12.5 12 H 0 2 V 12.5 13 H 0 -2 v 1 1 z"
       id="path1242" /><path
       style="fill:#32cb32;stroke-width:1"
       d="M -13.5,8 H -14 V 6.5 5 h 0.5 0.5 V 6.5 8 Z m 6,-2 H -8 V 5.5 5 H -7.5 -7 V 5.5 6 Z"
       id="path1240" /><path
       style="fill:#7f7f00;stroke-width:1"
       d="M 2.5,21 H -2 V 20.5 20 H -2.5 -3 V 19 18 H -3.5 -4 V 16.5 15 H 0.5 5 V 15.5 16 H 1 -3 v 1 1 h 0.5 0.5 v 1 1 H 2.5 7 v 0.5 0.5 z m 3,-2 H 5 V 18.5 18 H 5.5 6 v 0.5 0.5 z m -1,-5 H 2 V 13.5 13 H 4.5 7 v 0.5 0.5 z"
       id="path1236" /><path
       style="fill:#0032cb;stroke-width:1"
       d="M -10.5,9 H -11 V 8.5 8 h 0.5 0.5 V 8.5 9 Z m 2,0 H -9 V 8.5 8 H -8.5 -8 V 7.5 7 H -7.5 -7 V 7.5 8 H -7.5 -8 V 8.5 9 Z"
       id="path1234" /><path
       style="fill:#329800;stroke-width:1"
       d="M -12.5,7 H -13 V 6.5 6 h 0.5 0.5 V 6.5 7 Z M -6,6 H -7 V 5.5 5 H -6.5 -6 V 4 3 H -5.5 -5 V 4.5 6 Z m -8,-1 h -1 V 4.5 4 h 1 1 V 4.5 5 Z M -14.5,2 H -15 V 1 0 h 0.5 0.5 V -0.5 -1 h 1 1 V -1.5 -2 h 2 2 v 1 1 h -1 -1 V 0.5 1 H -10.5 -11 V 1.5 2 H -11.5 -12 V 1.5 1 h 0.5 0.5 V 0.5 0 h 0.5 0.5 V -0.5 -1 h -1 -1 V -0.5 0 h -1 -1 v 1 1 z"
       id="path1232" /><path
       style="fill:#326500;stroke-width:1"
       d="M -12.5,3 H -14 V 2.5 2 h 1.5 1.5 V 1.5 1 h 0.5 0.5 V 0.5 0 h 1 1 V -0.5 -1 H -7.5 -7 V -0.5 0 H -7.5 -8 V 0.5 1 h -1 -1 V 1.5 2 H -10.5 -11 V 2.5 3 Z"
       id="path1230" /><path
       style="fill:#006500;stroke-width:1"
       d="M -13.5,9 H -14 V 8.5 8 H -14.5 -15 V 7 6 H -15.5 -16 V 5.5 5 h 0.5 0.5 V 5.5 6 h 0.5 0.5 v 1 1 h 0.5 0.5 V 7.5 7 h 0.5 0.5 V 6.5 6 H -12.5 -13 V 5.5 5 h 0.5 0.5 V 5.5 6 h 0.5 0.5 V 6.5 7 H -11.5 -12 V 7.5 8 H -12.5 -13 V 8.5 9 Z M -7,7 H -8 V 6.5 6 H -8.5 -9 V 5.5 5 H -8.5 -8 V 4.5 4 H -7.5 -7 V 3.5 3 H -6.5 -6 V 2.5 2 H -5.5 -5 V 2.5 3 H -5.5 -6 V 3.5 4 H -6.5 -7 V 4.5 5 H -7.5 -8 V 5.5 6 h 1 1 V 6.5 7 Z"
       id="path1228" /><path
       style="fill:#030303;stroke-width:1"
       d="m -10,10 h -2 V 9.5 9 H -12.5 -13 V 8.5 8 h 0.5 0.5 V 7.5 7 h 0.5 0.5 V 7.5 8 H -11.5 -12 V 8.5 9 h 2 2 V 8.5 8 h 1 1 V 7 6 H -5.5 -5 V 4 2 H -5.5 -6 V 1 0 H -5.5 -5 V 1 2 H -4.5 -4 V 4 6 H -4.5 -5 V 7 8 H -5.5 -6 V 8.5 9 H -7 -8 V 9.5 10 Z"
       id="path1226" /><path
       style="fill:#000000;stroke-width:1"
       d="M 3.5,22 H -1 V 21.5 21 H 3 7 V 20.5 20 H 6.5 6 V 19 18 H 5.5 5 V 17 16 H 5.5 6 v 1 1 H 6.5 7 V 16 14 H 7.5 8 v 4 4 z"
       id="path1224" /></g></svg>
