<?xml version="1.0" encoding="UTF-8" standalone="no"?>
<svg
   id="svg620"
   width="24"
   version="1.1"
   height="24"
   sodipodi:docname="edit-cut.svg"
   inkscape:version="1.2.2 (b0a8486541, 2022-12-01)"
   xml:space="preserve"
   xmlns:inkscape="http://www.inkscape.org/namespaces/inkscape"
   xmlns:sodipodi="http://sodipodi.sourceforge.net/DTD/sodipodi-0.dtd"
   xmlns="http://www.w3.org/2000/svg"
   xmlns:svg="http://www.w3.org/2000/svg"
   xmlns:rdf="http://www.w3.org/1999/02/22-rdf-syntax-ns#"
   xmlns:cc="http://creativecommons.org/ns#"
   xmlns:dc="http://purl.org/dc/elements/1.1/"><sodipodi:namedview
     pagecolor="#ffffff"
     bordercolor="#666666"
     borderopacity="1"
     objecttolerance="10"
     gridtolerance="10"
     guidetolerance="10"
     inkscape:pageopacity="0"
     inkscape:pageshadow="2"
     inkscape:window-width="1920"
     inkscape:window-height="1010"
     id="namedview313"
     showgrid="true"
     inkscape:zoom="22.627418"
     inkscape:cx="12.109203"
     inkscape:cy="15.158601"
     inkscape:window-x="0"
     inkscape:window-y="0"
     inkscape:window-maximized="1"
     inkscape:current-layer="svg620"
     inkscape:showpageshadow="2"
     inkscape:pagecheckerboard="0"
     inkscape:deskcolor="#d1d1d1"><inkscape:grid
       type="xygrid"
       id="grid4713"
       originx="8.1711701e-09"
       originy="8.0000004" /></sodipodi:namedview><metadata
     id="metadata624"><rdf:RDF><cc:Work
         rdf:about=""><dc:format>image/svg+xml</dc:format><dc:type
           rdf:resource="http://purl.org/dc/dcmitype/StillImage" /></cc:Work></rdf:RDF></metadata><defs
     id="defs2" /><style
     id="current-color-scheme">
      .ColorScheme-Text {
        color:#232629;
      }
      .ColorScheme-Highlight {
        color:#3daee9;
      }
      </style><g
     id="g2446"
     transform="translate(19,-8.9999996)"><path
       style="fill:currentColor;stroke-width:1"
       d="m -4,25 v 1 h -1 v 4 h 2 v 1 H 0 V 30 H 1 V 27 H 0 v -2 z m 2,3 h 1 v 1 h -1 z m -10.000001,-3 v 1 h -1 v 1 h -1 v 3 h 2 v 1 H -9 v -1 h 1 v -4 h -1 v -1 z m 1,3 h 1 v 1 h -1 z"
       id="rect338"
       class="ColorScheme-Highlight"
       sodipodi:nodetypes="cccccccccccccccccccccccccccccccccccccc" /><path
       style="opacity:0.5;fill:#ededed;fill-opacity:1;stroke-width:1"
       d="M -13,27.5 V 27 h 0.5 0.5 V 26.5 26 h 0.5 0.5 v 0.5 0.5 h -0.5 -0.5 v 0.5 0.5 h -0.5 -0.5 z m 9,0 V 27 H -3.5 -3 V 26.5 26 H -2.5 -2 V 26.5 27 H -2.5 -3 V 27.5 28 H -3.5 -4 Z"
       id="path336"
       sodipodi:nodetypes="cccccccccccccccccccccccccccccccccc" /><path
       style="opacity:0.5;fill:#bcbcbc;fill-opacity:1;stroke-width:1"
       d="M -13,28.5 V 28 h 0.5 0.5 v 0.5 0.5 h -0.5 -0.5 z m 9,0 V 28 H -3.5 -3 V 28.5 29 H -3.5 -4 Z m -7,-2 V 26 h 1 1 v 0.5 0.5 h -1 -1 z m 7,0 V 26 H -3.5 -3 V 26.5 27 H -3.5 -4 Z m 2,0 V 26 H -1.5 -1 V 26.5 27 H -1.5 -2 Z"
       id="path330"
       sodipodi:nodetypes="ccccccccccccccccccccccccccccccccccccccccccccc" /><path
       style="opacity:0.5;fill:#707070;fill-opacity:1;stroke-width:1"
       d="m -14.000002,28.500001 v -1.5 h 0.5 0.5 v -0.5 -0.5 h 0.5 0.5 v -0.5 -0.5 h 1.5 1.5 v 0.5 0.5 h -1.5 -1.5 v 0.5 0.5 h -0.5 -0.5 v 1.5 1.5 h -0.5 -0.5 z m 9.000002,-1 V 26 h 1 v -1 l 1.5,1e-6 H 0 v 0.5 0.5 h -2 -2 v 2 2 H -4.5 -5 Z"
       id="path326"
       sodipodi:nodetypes="cccccccccccccccccccccccccccccccccccccccc" /><path
       style="opacity:0.5;fill:#464646;fill-opacity:1;stroke-width:1"
       d="M -12,29.5 V 29 h 1 1 v -1 -1 h 0.5 0.5 v 1.5 1.5 h -1.5 -1.5 z m 9,0 V 29 h 1 1 V 28 27 H -0.5 0 V 28.5 30 H -1.5 -3 Z"
       id="path322"
       sodipodi:nodetypes="cccccccccccccccccccccccccc" /><path
       style="opacity:0.5;fill:#323232;fill-opacity:1;stroke-width:1"
       d="m -12,28 v -1 h 1 1 v 0.5 0.5 h -0.5 -0.5 v 0.5 0.5 h -0.5 -0.5 z m 9,0 v -1 h 1 1 V 27.5 28 H -1.5 -2 V 28.5 29 H -2.5 -3 Z"
       id="path320"
       sodipodi:nodetypes="cccccccccccccccccccccccccc" /></g><path
     style="fill:#fefefe;stroke-width:1"
     d="M 11.5,14 H 11 V 13.5 13 h 0.5 0.5 v 0.5 0.5 z m -1,-2 H 10 V 11.5 11 h 0.5 0.5 v 0.5 0.5 z m 3,-1 H 13 V 10.5 10 h 0.5 0.5 v 0.5 0.5 z m -4,-1 H 9 V 9.5 9 H 9.5 10 V 9.5 10 Z m 5,-1 H 14 V 8.5 8 H 14.5 15 V 8.5 9 Z M 8.5,8 H 8 V 7.5 7 H 8.5 9 V 7.5 8 Z m 7,-1 H 15 V 6.5 6 H 15.5 16 V 6.5 7 Z M 7.5,6 H 7 V 5.5 5 H 7.5 8 V 5.5 6 Z m 9,-1 H 16 V 4.5 4 H 16.5 17 V 4.5 5 Z M 6.5,4 H 6 V 3.5 3 H 6.5 7 V 3.5 4 Z m 11,-1 H 17 V 2.5 2 H 17.5 18 V 2.5 3 Z"
     id="path335" /><path
     style="fill:#cbcbcb;stroke-width:1"
     d="M 10.5,17 H 10 V 16.5 16 h 0.5 0.5 v 0.5 0.5 z m 1,-2 H 11 V 14.5 14 h 0.5 0.5 v 0.5 0.5 z m 0,-2 H 11 V 12.5 12 h 0.5 0.5 v 0.5 0.5 z m 2,-1 H 13 V 11.5 11 h 0.5 0.5 v 0.5 0.5 z m -3,-1 H 10 V 10.5 10 h 0.5 0.5 v 0.5 0.5 z m 4,-1 H 14 V 9.5 9 H 14.5 15 V 9.5 10 Z M 9.5,9 H 9 V 8.5 8 H 9.5 10 V 8.5 9 Z m 6,-1 H 15 V 7.5 7 H 15.5 16 V 7.5 8 Z M 8.5,7 H 8 V 6.5 6 H 8.5 9 V 6.5 7 Z m 8,-1 H 16 V 5.5 5 H 16.5 17 V 5.5 6 Z M 7.5,5 H 7 V 4.5 4 H 7.5 8 V 4.5 5 Z m 10,-1 H 17 V 3.5 3 H 17.5 18 V 3.5 4 Z"
     id="path331" /><path
     style="fill:#b1b1b1;stroke-width:1"
     d="M 11.5,17 H 11 v -1 -1 h 0.5 0.5 v 1 1 z m 2,0 H 13 V 16.5 16 H 13.5 14 V 16.5 17 Z M 6.5,3 H 6 V 2.5 2 H 6.5 7 V 2.5 3 Z"
     id="path329" /><path
     style="fill:#858585;stroke-width:1"
     d="M 10.5,16 H 10 V 15.5 15 h 0.5 0.5 v 0.5 0.5 z m 3,0 H 13 V 15.5 15 H 12.5 12 V 14 13 H 12.5 13 V 12.5 12 H 13.5 14 V 12.5 13 H 13.5 13 v 1 1 h 0.5 0.5 v 0.5 0.5 z m -3,-2 H 10 V 13 12 H 9.5 9 V 11 10 H 8.5 8 V 9 8 H 7.5 7 V 7 6 H 6.5 6 V 5 4 H 5.5 5 V 3 2 H 5.5 6 V 1.5 1 H 6.5 7 V 1.5 2 H 6.5 6 V 3 4 H 6.5 7 V 3.5 3 H 7.5 8 V 3.5 4 H 7.5 7 V 5 6 H 7.5 8 V 5.5 5 H 8.5 9 V 5.5 6 H 8.5 8 V 7 8 H 8.5 9 V 7.5 7 H 9.5 10 V 7.5 8 H 9.5 9 v 1 1 H 9.5 10 V 9.5 9 H 10.5 11 V 9.5 10 H 10.5 10 v 1 1 H 10.5 11 V 11.5 11 H 11.5 12 V 10.5 10 H 12.5 13 V 9 8 H 13.5 14 V 7 6 H 14.5 15 V 5 4 H 15.5 16 V 3 2 H 16.5 17 V 1.5 1 H 17.5 18 V 1.5 2 H 18.5 19 V 2.5 3 H 18.5 18 V 2.5 2 H 17.5 17 V 3 4 H 17.5 18 V 4.5 5 H 17.5 17 V 4.5 4 H 16.5 16 V 5 6 H 16.5 17 V 6.5 7 H 16.5 16 V 6.5 6 H 15.5 15 V 7 8 H 15.5 16 V 8.5 9 H 15.5 15 V 8.5 8 H 14.5 14 v 1 1 H 14.5 15 V 10.5 11 H 14.5 14 V 10.5 10 H 13.5 13 V 10.5 11 H 12.5 12 V 11.5 12 H 11.5 11 v 1 1 z"
     id="path321" /><path
     style="fill:#000000;stroke-width:1"
     d="M 8.5,23 H 7 V 22.5 22 H 6.5 6 V 21.5 21 H 6.5 7 V 21.5 22 H 8.5 10 V 21.5 21 H 10.5 11 V 19 17 H 11.5 12 V 16 15 H 12.5 13 V 14 13 H 12.5 12 V 12 11 H 11.5 11 V 10 9 H 10.5 10 V 8 7 H 9.5 9 V 6 5 H 8.5 8 V 4 3 H 7.5 7 V 2 1 H 7.5 8 V 2 3 H 8.5 9 V 4 5 H 9.5 10 v 1 1 h 0.5 0.5 v 1 1 h 0.5 0.5 v 1 1 h 0.5 0.5 v 1 1 H 13.5 14 V 12 11 H 14.5 15 V 10 9 H 15.5 16 V 8 7 H 16.5 17 V 6 5 H 17.5 18 V 4 3 H 18.5 19 V 2.5 2 H 18.5 18 V 1.5 1 H 18.5 19 V 1.5 2 H 19.5 20 V 2.5 3 H 19.5 19 V 4 5 H 18.5 18 V 6 7 H 17.5 17 V 8 9 H 16.5 16 v 1 1 H 15.5 15 v 1 1 H 14.5 14 v 1 1 h 0.5 0.5 v 1 1 H 14.5 14 V 16 15 H 13.5 13 v 1 1 H 12.5 12 v 2 2 H 11.5 11 V 21.5 22 H 10.5 10 v 0.5 0.5 z m 9,0 H 16 V 22.5 22 H 15.5 15 V 21.5 21 H 15.5 16 V 21.5 22 H 17.5 19 V 21.5 21 H 19.5 20 V 19.5 18 H 19.5 19 V 17.5 17 H 19.5 20 V 17.5 18 H 20.5 21 V 19.5 21 H 20.5 20 V 21.5 22 H 19.5 19 v 0.5 0.5 z"
     id="path315" /></svg>
