<?xml version="1.0" encoding="UTF-8" standalone="no"?>
<!-- Created with Inkscape (http://www.inkscape.org/) -->

<svg
   version="1.1"
   id="svg2"
   width="16"
   height="16"
   viewBox="0 0 16 16"
   sodipodi:docname="document-open.svg"
   xml:space="preserve"
   inkscape:version="1.2.2 (b0a8486541, 2022-12-01)"
   xmlns:inkscape="http://www.inkscape.org/namespaces/inkscape"
   xmlns:sodipodi="http://sodipodi.sourceforge.net/DTD/sodipodi-0.dtd"
   xmlns="http://www.w3.org/2000/svg"
   xmlns:svg="http://www.w3.org/2000/svg"><defs
     id="defs6"><inkscape:path-effect
       effect="fillet_chamfer"
       id="path-effect531"
       is_visible="true"
       lpeversion="1"
       nodesatellites_param="F,0,0,1,0,0,0,1 @ F,0,0,1,0,0,0,1 @ F,0,0,1,0,0,0,1 @ F,0,0,1,0,0,0,1 @ F,0,0,1,0,0,0,1 @ F,0,0,1,0,2,0,1 @ F,0,0,1,0,0,0,1 @ F,0,0,1,0,0,0,1 @ F,0,0,1,0,0,0,1 @ F,0,0,1,0,0,0,1 @ F,0,0,1,0,0,0,1 @ F,0,0,1,0,0,0,1 @ F,0,0,1,0,0,0,1 @ F,0,0,1,0,0,0,1 @ F,0,0,1,0,2,0,1 @ F,0,0,1,0,0,0,1"
       unit="px"
       method="auto"
       mode="F"
       radius="0"
       chamfer_steps="1"
       flexible="false"
       use_knot_distance="true"
       apply_no_radius="true"
       apply_with_radius="true"
       only_selected="false"
       hide_knots="false" /></defs><style
     id="current-color-scheme">.ColorScheme-Text { color:#232629; }
.ColorScheme-Highlight { color:#3daee9; }
.ColorScheme-NegativeText { color:#da4453; }
.ColorScheme-NeutralText { color:#f67400; }
.ColorScheme-PositiveText { color:#27ae60; }</style><sodipodi:namedview
     id="namedview4"
     pagecolor="#ffeee5"
     bordercolor="#000000"
     borderopacity="0.25"
     inkscape:showpageshadow="2"
     inkscape:pageopacity="0"
     inkscape:pagecheckerboard="0"
     inkscape:deskcolor="#d1d1d1"
     showgrid="true"
     inkscape:zoom="31.846154"
     inkscape:cx="6.3115942"
     inkscape:cy="8.1642511"
     inkscape:window-width="1920"
     inkscape:window-height="1010"
     inkscape:window-x="0"
     inkscape:window-y="0"
     inkscape:window-maximized="1"
     inkscape:current-layer="svg2"><inkscape:grid
       type="xygrid"
       id="grid248" /></sodipodi:namedview><path
     style="fill:currentColor;stroke-width:1"
     d="M 8,4 V 3 3 H 9 V 2 h 3 v 1 h 1 v 1 h 1 V 3 h 1 V 6 H 12 V 5 h 1 V 4 H 12 V 3 H 9 v 1 z"
     id="path1136"
     class="ColorScheme-Highlight"
     sodipodi:nodetypes="cccccccccccccccccccccc" /><path
     style="fill:#666600;fill-opacity:1;stroke-linecap:round;stroke-linejoin:round;paint-order:stroke fill markers;stop-color:#000000"
     d="M 0,14 V 6 H 1 V 5 h 3 v 1 h 7 v 3 h 4 v 1 h -1 v 1 h -1 v 1 h -1 v 1 h -1 v 1 z"
     id="path370" /><path
     id="path780"
     style="fill:#000000;fill-opacity:1;stroke-linecap:round;stroke-linejoin:round;paint-order:stroke fill markers;stop-color:#000000"
     d="m 10,7 v 2 h 1 V 7 Z m 5,2 v 1 h 1 V 9 Z m 0,1 h -1 v 1 h 1 z m -1,1 h -1 v 1 h 1 z m -1,1 h -1 v 1 h 1 z m -1,1 h -1 v 1 h 1 z m -1,1 H 0 v 1 h 11 z" /><path
     style="fill:#cc9900;fill-opacity:1;stroke-linecap:round;stroke-linejoin:round;paint-order:stroke fill markers;stop-color:#000000"
     d="m 2,14 v -1 h 1 v -1 h 1 v -1 h 1 v -1 h 8 v 1 h -1 v 1 h -1 v 1 h -1 v 1 z"
     id="path848" /><path
     id="path1141"
     style="fill:#808000;fill-opacity:1;stroke-linecap:round;stroke-linejoin:round;paint-order:stroke fill markers;stop-color:#000000"
     d="m 13,11 v -1 h 1 v 1 z m -1,1 v -1 h 1 v 1 z m -1,1 v -1 h 1 v 1 z m -1,1 v -1 h 1 v 1 z m 1,-3 v -1 h 1 v 1 z m -1,1 v -1 h 1 v 1 z m -1,1 v -1 h 1 v 1 z m -1,1 v -1 h 1 v 1 z M 7,13 v -1 h 1 v 1 z m -1,1 v -1 h 1 v 1 z m -2,0 v -1 h 1 v 1 z" /><path
     style="fill:#ffff99;fill-opacity:1;stroke-linecap:round;stroke-linejoin:round;paint-order:stroke fill markers;stop-color:#000000"
     d="M 2,13 V 9 h 8 V 7 H 4 V 6 H 1 v 7 z"
     id="path1207" /><path
     style="fill:#ffcc00;fill-opacity:1;stroke-linecap:round;stroke-linejoin:round;paint-order:stroke fill markers;stop-color:#000000"
     d="M 2,12 H 3 V 11 H 4 V 10 H 5 V 9 h 5 V 8 H 3 V 7 H 2 Z"
     id="path1665" /><path
     id="rect1656"
     style="fill:#ffffff;stroke-linecap:round;stroke-linejoin:round;paint-order:stroke fill markers;stop-color:#000000"
     d="m 2,10 h 1 v 1 H 2 Z M 3,9 h 1 v 1 H 3 Z M 4,8 H 5 V 9 H 4 Z M 2,8 H 3 V 9 H 2 Z M 3,7 H 4 V 8 H 3 Z M 1,6 H 2 V 7 H 1 Z" /><rect
     style="fill:#cccc99;fill-opacity:1;stroke-linecap:round;stroke-linejoin:round;paint-order:stroke fill markers;stop-color:#000000"
     id="rect1719"
     width="1"
     height="1"
     x="3"
     y="6" /></svg>
