<?xml version="1.0" encoding="UTF-8" standalone="no"?>
<!-- Created with Inkscape (http://www.inkscape.org/) -->

<svg
   version="1.1"
   id="svg2"
   width="16"
   height="16"
   viewBox="0 0 16 16"
   sodipodi:docname="download.svg"
   xml:space="preserve"
   inkscape:version="1.2.2 (b0a8486541, 2022-12-01)"
   xmlns:inkscape="http://www.inkscape.org/namespaces/inkscape"
   xmlns:sodipodi="http://sodipodi.sourceforge.net/DTD/sodipodi-0.dtd"
   xmlns="http://www.w3.org/2000/svg"
   xmlns:svg="http://www.w3.org/2000/svg"><defs
     id="defs6"><inkscape:path-effect
       effect="fillet_chamfer"
       id="path-effect531"
       is_visible="true"
       lpeversion="1"
       nodesatellites_param="F,0,0,1,0,0,0,1 @ F,0,0,1,0,0,0,1 @ F,0,0,1,0,0,0,1 @ F,0,0,1,0,0,0,1 @ F,0,0,1,0,0,0,1 @ F,0,0,1,0,2,0,1 @ F,0,0,1,0,0,0,1 @ F,0,0,1,0,0,0,1 @ F,0,0,1,0,0,0,1 @ F,0,0,1,0,0,0,1 @ F,0,0,1,0,0,0,1 @ F,0,0,1,0,0,0,1 @ F,0,0,1,0,0,0,1 @ F,0,0,1,0,0,0,1 @ F,0,0,1,0,2,0,1 @ F,0,0,1,0,0,0,1"
       unit="px"
       method="auto"
       mode="F"
       radius="0"
       chamfer_steps="1"
       flexible="false"
       use_knot_distance="true"
       apply_no_radius="true"
       apply_with_radius="true"
       only_selected="false"
       hide_knots="false" /></defs><style
     id="current-color-scheme">.ColorScheme-Text { color:#232629; }
.ColorScheme-Highlight { color:#3daee9; }
.ColorScheme-NegativeText { color:#da4453; }
.ColorScheme-NeutralText { color:#f67400; }
.ColorScheme-PositiveText { color:#27ae60; }</style><sodipodi:namedview
     id="namedview4"
     pagecolor="#ffeee5"
     bordercolor="#000000"
     borderopacity="0.25"
     inkscape:showpageshadow="2"
     inkscape:pageopacity="0"
     inkscape:pagecheckerboard="0"
     inkscape:deskcolor="#d1d1d1"
     showgrid="true"
     inkscape:zoom="51.75"
     inkscape:cx="7.9903382"
     inkscape:cy="8"
     inkscape:window-width="1920"
     inkscape:window-height="1010"
     inkscape:window-x="0"
     inkscape:window-y="0"
     inkscape:window-maximized="1"
     inkscape:current-layer="svg2"><inkscape:grid
       type="xygrid"
       id="grid248"
       spacingx="0.5"
       spacingy="0.5"
       empspacing="4" /></sodipodi:namedview><g
     id="g5012"><path
       style="opacity:1;fill:#ffff99;fill-opacity:1;stroke:none;stroke-opacity:1;stop-color:#000000"
       d="m 10,14 v -4 h 5 v 1 3 z"
       id="path1611" /><path
       id="path975"
       style="opacity:1;fill:#999900;fill-opacity:1;stroke:none;stroke-opacity:0.501961;stop-color:#000000"
       d="M 9 8 L 9 11 L 8 11 L 8 15 L 9 15 L 9 16 L 16 16 L 16 9 L 13 9 L 13 8 L 9 8 z M 10 9 L 12 9 L 12 10 L 15 10 L 15 11 L 10 11 L 10 9 z M 9 12 L 14 12 L 14 14 L 9 14 L 9 12 z " /><path
       style="opacity:1;fill:none;fill-opacity:1;stroke:#000000;stroke-opacity:1;stop-color:#000000"
       d="m 14,11.5 h 1.5 v 4 H 9"
       id="path1324"
       sodipodi:nodetypes="cccc" /><path
       id="path2238"
       style="opacity:1;fill:#ffcc99;fill-opacity:1;stroke:none;stroke-opacity:1;stop-color:#000000"
       d="m 13,13 h 1 v 1 h -1 z m -2,0 h 1 v 1 h -1 z" /><path
       id="path2306"
       style="opacity:1;fill:#f8f8f8;fill-opacity:1;stroke:none;stroke-opacity:1;stop-color:#000000"
       d="M 10,10 V 9 h 2 v 1 z m -1,4 h 1 v -1 h 4 V 12 H 9 Z" /></g><g
     id="g5027"><path
       id="path2424"
       style="opacity:1;fill:#33cc33;fill-opacity:1;stroke:none;stroke-opacity:1;stop-color:#000000"
       d="M 2 1 L 2 2 L 3 2 L 3 1 L 2 1 z M 4 1 L 4 2 L 5 2 L 5 1 L 4 1 z M 6 4 L 6 5 L 7 5 L 7 4 L 6 4 z M 1 5 L 1 6 L 2 6 L 2 5 L 1 5 z " /><path
       style="opacity:1;fill:#008000;fill-opacity:1;stroke:none;stroke-opacity:1;stop-color:#000000"
       d="M 1,5 V 4 h 1 v 1 z"
       id="path2770" /><path
       id="path3281"
       style="opacity:1;fill:#006600;fill-opacity:1;stroke:none;stroke-opacity:1;stop-color:#000000"
       d="M 6,6 V 4 H 5 V 6 Z M 6,4 V 3 H 7 V 4 Z M 1,7 V 6 H 2 V 4 H 3 V 7 Z M 0,6 V 5 h 1 v 1 z" /><path
       id="path3654"
       style="fill:#336600;fill-opacity:1;stroke:none;stroke-opacity:1;stop-color:#000000"
       d="M 2,3 V 2 H 5 V 3 Z M 5,2 V 1 H 6 V 2 Z M 6,6 V 5 h 1 v 1 z" /><path
       style="opacity:1;fill:#040404;fill-opacity:1;stroke:none;stroke-opacity:1;stop-color:#000000"
       d="M 2,8 V 7 H 6 V 6 H 7 V 3 H 8 V 6 H 7 V 7 H 6 v 1 z"
       id="path3284" /><path
       id="path4000"
       style="opacity:1;fill:#3366ff;fill-opacity:1;stroke:none;stroke-opacity:1;stop-color:#000000"
       d="M 6 1 L 6 2 L 7 2 L 7 1 L 6 1 z M 7 2 L 7 3 L 8 3 L 8 2 L 7 2 z M 0 2 L 0 5 L 1 5 L 1 2 L 0 2 z " /><path
       style="opacity:1;fill:#3333ff;fill-opacity:1;stroke:none;stroke-opacity:1;stop-color:#000000"
       d="M 3,6 H 6 V 7 H 3 Z"
       id="path4281" /><path
       style="opacity:1;fill:#0033cc;fill-opacity:1;stroke:none;stroke-opacity:1;stop-color:#000000"
       d="M 4,6 H 5 V 7 H 4 Z"
       id="path4346" /><path
       style="opacity:1;fill:#ccffff;fill-opacity:1;stroke:none;stroke-opacity:1;stop-color:#000000"
       d="M 1,2 H 2 V 3 H 1 Z"
       id="path4411" /><path
       style="opacity:1;fill:#33ffff;fill-opacity:1;stroke:none;stroke-opacity:1;stop-color:#000000"
       d="M 1,3 H 3 V 4 H 1 Z"
       id="path4476" /><path
       style="opacity:1;fill:#339900;fill-opacity:1;stroke:none;stroke-opacity:1;stop-color:#000000"
       d="M 1,2 V 1 H 2 V 0 H 6 V 1 H 4 V 2 H 3 V 1 H 2 v 1 z"
       id="path4541" /><path
       id="path4746"
       style="opacity:1;fill:#3399ff;fill-opacity:1;stroke:none;stroke-opacity:1;stop-color:#000000"
       d="M 5,2 V 3 H 7 V 2 Z M 5,3 H 4 V 4 H 5 Z M 3,5 V 6 H 4 V 5 Z" /><path
       style="opacity:1;fill:#33ccff;fill-opacity:1;stroke:none;stroke-opacity:1;stop-color:#000000"
       d="M 3,3 H 4 V 4 H 5 V 3 H 6 V 4 H 5 V 6 H 4 V 5 H 3 Z"
       id="path4838" /></g><path
     style="fill:currentColor;stroke-width:2;-inkscape-stroke:none;paint-order:stroke fill markers"
     d="m 9,1 h 2 V 4 H 9 Z m 3,4 h 3 V 6 H 14 V 7 H 13 V 6 h -1 z m 0,-4 h 1 v 1 h 1 v 1 h 1 v 1 h -3 z"
     id="path4905"
     class="ColorScheme-Highlight"
     sodipodi:nodetypes="ccccccccccccccccccccccc" /></svg>
