<?xml version="1.0" encoding="UTF-8" standalone="no"?>
<!-- Created with Inkscape (http://www.inkscape.org/) -->

<svg
   version="1.1"
   id="svg4538"
   width="16"
   height="16"
   viewBox="0 0 16 16"
   sodipodi:docname="pan-end.svg"
   xml:space="preserve"
   inkscape:version="1.2.2 (b0a8486541, 2022-12-01)"
   xmlns:inkscape="http://www.inkscape.org/namespaces/inkscape"
   xmlns:sodipodi="http://sodipodi.sourceforge.net/DTD/sodipodi-0.dtd"
   xmlns="http://www.w3.org/2000/svg"
   xmlns:svg="http://www.w3.org/2000/svg"><defs
     id="defs4542"><style
       id="current-color-scheme">.ColorScheme-Text { color:#232629; }
.ColorScheme-Highlight { color:#3daee9; }
.ColorScheme-NegativeText { color:#da4453; }
.ColorScheme-NeutralText { color:#f67400; }
.ColorScheme-PositiveText { color:#27ae60; }</style></defs><sodipodi:namedview
     id="namedview4540"
     pagecolor="#505050"
     bordercolor="#ffffff"
     borderopacity="1"
     inkscape:showpageshadow="0"
     inkscape:pageopacity="0"
     inkscape:pagecheckerboard="1"
     inkscape:deskcolor="#505050"
     showgrid="true"
     inkscape:zoom="51.75"
     inkscape:cx="8"
     inkscape:cy="8"
     inkscape:current-layer="g4544"
     inkscape:window-width="1920"
     inkscape:window-height="1010"
     inkscape:window-x="0"
     inkscape:window-y="0"
     inkscape:window-maximized="1"><inkscape:grid
       type="xygrid"
       id="grid5417" /></sodipodi:namedview><g
     inkscape:groupmode="layer"
     inkscape:label="Image"
     id="g4544"><path
       id="path1565"
       style="fill:currentColor;stroke-linecap:round;stroke-linejoin:round;-inkscape-stroke:none"
       class="ColorScheme-Text"
       d="M 13 2 L 13 13 L 14 13 L 14 2 L 13 2 z M 7 3 L 7 5 L 4 5 L 4 10 L 7 10 L 7 12 L 8 12 L 8 11 L 9 11 L 9 10 L 10 10 L 10 9 L 11 9 L 11 8 L 12 8 L 12 7 L 11 7 L 11 6 L 10 6 L 10 5 L 9 5 L 9 4 L 8 4 L 8 3 L 7 3 z " /></g></svg>
