<?xml version="1.0" encoding="UTF-8" standalone="no"?>
<svg
   id="svg620"
   width="16"
   version="1.1"
   height="16"
   sodipodi:docname="zoom-original.svg"
   inkscape:version="1.2.2 (b0a8486541, 2022-12-01)"
   xml:space="preserve"
   xmlns:inkscape="http://www.inkscape.org/namespaces/inkscape"
   xmlns:sodipodi="http://sodipodi.sourceforge.net/DTD/sodipodi-0.dtd"
   xmlns="http://www.w3.org/2000/svg"
   xmlns:svg="http://www.w3.org/2000/svg"
   xmlns:rdf="http://www.w3.org/1999/02/22-rdf-syntax-ns#"
   xmlns:cc="http://creativecommons.org/ns#"
   xmlns:dc="http://purl.org/dc/elements/1.1/"><sodipodi:namedview
     pagecolor="#ffffff"
     bordercolor="#666666"
     borderopacity="1"
     objecttolerance="10"
     gridtolerance="10"
     guidetolerance="10"
     inkscape:pageopacity="0"
     inkscape:pageshadow="2"
     inkscape:window-width="1920"
     inkscape:window-height="1009"
     id="namedview313"
     showgrid="true"
     inkscape:zoom="38.985154"
     inkscape:cx="2.4881266"
     inkscape:cy="8.3493322"
     inkscape:window-x="0"
     inkscape:window-y="0"
     inkscape:window-maximized="1"
     inkscape:current-layer="svg620"
     inkscape:showpageshadow="2"
     inkscape:pagecheckerboard="0"
     inkscape:deskcolor="#d1d1d1"><inkscape:grid
       type="xygrid"
       id="grid4713" /></sodipodi:namedview><metadata
     id="metadata624"><rdf:RDF><cc:Work
         rdf:about=""><dc:format>image/svg+xml</dc:format><dc:type
           rdf:resource="http://purl.org/dc/dcmitype/StillImage" /></cc:Work></rdf:RDF></metadata><defs
     id="defs2" /><style
     id="current-color-scheme">
      .ColorScheme-Text {
        color:#232629;
      }
      .ColorScheme-Highlight {
        color:#3daee9;
      }
      </style><path
     id="rect614"
     style="fill:currentColor;stroke-width:1"
     class="ColorScheme-Highlight"
     d="M 5 3 L 5 4 L 4 4 L 4 5 L 5 5 L 5 8 L 4 8 L 4 9 L 8 9 L 8 8 L 7 8 L 7 3 L 5 3 z M 12 11 L 12 12 L 13 12 L 13 11 L 12 11 z M 13 12 L 13 13 L 14 13 L 14 12 L 13 12 z M 14 13 L 14 14 L 15 14 L 15 13 L 14 13 z M 14 14 L 13 14 L 13 15 L 14 15 L 14 14 z M 13 14 L 13 13 L 12 13 L 12 14 L 13 14 z M 12 13 L 12 12 L 11 12 L 11 13 L 12 13 z " /><path
     style="fill:currentColor;stroke-width:1"
     d="M 4,0 C 4,0.33333334 4,0.66666666 4,1 5.3333334,1 6.6666666,1 8,1 8,0.66666666 8,0.33333334 8,0 6.6666666,0 5.3333334,0 4,0 Z M 8,1 C 8,1.3333334 8,1.6666666 8,2 8.6666666,2 9.3333334,2 10,2 10,1.6666666 10,1.3333334 10,1 9.3333334,1 8.6666666,1 8,1 Z m 2,1 c 0,0.6666666 0,1.3333334 0,2 0.333333,0 0.666667,0 1,0 0,-0.6666666 0,-1.3333334 0,-2 -0.333333,0 -0.666667,0 -1,0 z m 1,2 c 0,1.3333334 0,2.6666666 0,4 0.333333,0 0.666667,0 1,0 0,-1.3333334 0,-2.6666666 0,-4 -0.333333,0 -0.666667,0 -1,0 z m 0,4 c -0.333333,0 -0.666667,0 -1,0 0,0.6666666 0,1.3333334 0,2 -0.6666666,0 -1.3333334,0 -2,0 0,0.333333 0,0.666667 0,1 0.6666666,0 1.3333334,0 2,0 0,0.333333 0,0.666667 0,1 0.666667,0 1.333333,0 2,0 0,-0.666667 0,-1.333333 0,-2 -0.333333,0 -0.666667,0 -1,0 0,-0.6666666 0,-1.3333334 0,-2 z m 1,4 c 0,0.333333 0,0.666666 0,1 0.333333,0 0.666666,0 1,0 0,-0.333334 0,-0.666667 0,-1 -0.333334,0 -0.666667,0 -1,0 z m 1,1 c 0,0.333334 0,0.666666 0,1 0.333334,0 0.666666,0 1,0 0,-0.333334 0,-0.666666 0,-1 -0.333334,0 -0.666666,0 -1,0 z m 1,1 c 0,0.333334 0,0.666666 0,1 0.333334,0 0.666666,0 1,0 0,-0.333334 0,-0.666666 0,-1 -0.333334,0 -0.666666,0 -1,0 z M 8,11 c -1.3333334,0 -2.6666666,0 -4,0 0,0.333333 0,0.666667 0,1 1.3333334,0 2.6666666,0 4,0 0,-0.333333 0,-0.666667 0,-1 z m -4,0 c 0,-0.333333 0,-0.666667 0,-1 -0.6666666,0 -1.3333334,0 -2,0 0,0.333333 0,0.666667 0,1 0.6666666,0 1.3333334,0 2,0 z M 2,10 C 2,9.3333334 2,8.6666666 2,8 1.6666666,8 1.3333334,8 1,8 c 0,0.6666666 0,1.3333334 0,2 0.3333334,0 0.6666666,0 1,0 z M 1,8 C 1,6.6666666 1,5.3333334 1,4 0.66666666,4 0.33333334,4 0,4 0,5.3333334 0,6.6666666 0,8 0.33333334,8 0.66666666,8 1,8 Z M 1,4 C 1.3333334,4 1.6666666,4 2,4 2,3.3333334 2,2.6666666 2,2 1.6666666,2 1.3333334,2 1,2 1,2.6666666 1,3.3333334 1,4 Z M 2,2 C 2.6666666,2 3.3333334,2 4,2 4,1.6666666 4,1.3333334 4,1 3.3333334,1 2.6666666,1 2,1 2,1.3333334 2,1.6666666 2,2 Z"
     id="rect618"
     class="ColorScheme-Text" /></svg>
