<?xml version="1.0" encoding="UTF-8" standalone="no"?>
<!-- Created with Inkscape (http://www.inkscape.org/) -->

<svg
   version="1.1"
   id="svg2"
   width="22"
   height="22"
   viewBox="0 0 22 22"
   sodipodi:docname="download.svg"
   xml:space="preserve"
   inkscape:version="1.2.2 (b0a8486541, 2022-12-01)"
   xmlns:inkscape="http://www.inkscape.org/namespaces/inkscape"
   xmlns:sodipodi="http://sodipodi.sourceforge.net/DTD/sodipodi-0.dtd"
   xmlns="http://www.w3.org/2000/svg"
   xmlns:svg="http://www.w3.org/2000/svg"><defs
     id="defs6"><inkscape:path-effect
       effect="fillet_chamfer"
       id="path-effect531"
       is_visible="true"
       lpeversion="1"
       nodesatellites_param="F,0,0,1,0,0,0,1 @ F,0,0,1,0,0,0,1 @ F,0,0,1,0,0,0,1 @ F,0,0,1,0,0,0,1 @ F,0,0,1,0,0,0,1 @ F,0,0,1,0,2,0,1 @ F,0,0,1,0,0,0,1 @ F,0,0,1,0,0,0,1 @ F,0,0,1,0,0,0,1 @ F,0,0,1,0,0,0,1 @ F,0,0,1,0,0,0,1 @ F,0,0,1,0,0,0,1 @ F,0,0,1,0,0,0,1 @ F,0,0,1,0,0,0,1 @ F,0,0,1,0,2,0,1 @ F,0,0,1,0,0,0,1"
       unit="px"
       method="auto"
       mode="F"
       radius="0"
       chamfer_steps="1"
       flexible="false"
       use_knot_distance="true"
       apply_no_radius="true"
       apply_with_radius="true"
       only_selected="false"
       hide_knots="false" /></defs><style
     id="current-color-scheme">.ColorScheme-Text { color:#232629; }
.ColorScheme-Highlight { color:#3daee9; }
.ColorScheme-NegativeText { color:#da4453; }
.ColorScheme-NeutralText { color:#f67400; }
.ColorScheme-PositiveText { color:#27ae60; }</style><sodipodi:namedview
     id="namedview4"
     pagecolor="#ffeee5"
     bordercolor="#000000"
     borderopacity="0.25"
     inkscape:showpageshadow="2"
     inkscape:pageopacity="0"
     inkscape:pagecheckerboard="0"
     inkscape:deskcolor="#d1d1d1"
     showgrid="true"
     inkscape:zoom="37.636364"
     inkscape:cx="11"
     inkscape:cy="11"
     inkscape:window-width="1920"
     inkscape:window-height="1010"
     inkscape:window-x="0"
     inkscape:window-y="0"
     inkscape:window-maximized="1"
     inkscape:current-layer="svg2"><inkscape:grid
       type="xygrid"
       id="grid248"
       spacingx="0.5"
       spacingy="0.5"
       empspacing="4"
       originx="6"
       originy="6" /></sodipodi:namedview><path
     style="fill:currentColor;stroke-width:2;-inkscape-stroke:none;paint-order:stroke fill markers"
     d="m 14,4 h 1 v 3 h -1 z m 2,7 h -1 v -1 h 5 v 1 h -1 v 1 h -1 v 1 h -1 v -1 h -1 z m 0,-7 h 1 v 1 h 1 v 1 h 1 v 1 h -3 z m -4,0 h 1 v 3 h -1 z m 7,4 V 9 H 16 V 8 Z"
     id="path4905"
     class="ColorScheme-Highlight"
     sodipodi:nodetypes="cccccccccccccccccccccccccccccccc" /><g
     id="g1104"
     transform="matrix(0.1,0,0,0.1,5.4,11.8)"
     style="stroke-width:10"><path
       style="fill:#f7f7f7;stroke-width:10"
       d="M 81,82 H 76 V 77 72 H 71 66 V 62 52 h 35 35 v 5 5 H 106 76 v 5 5 h 5 5 v 5 5 z M 81,42 H 76 V 32 22 h 20 20 v 5 5 h 20 20 v 5 5 H 131 106 V 37 32 H 96 86 v 5 5 z"
       id="path1140" /><path
       style="fill:#cbfecb;stroke-width:10"
       d="m -39,-58 h -5 v -10 -10 h 5 5 v -10 -10 h 10 10 v -5 -5 H -4 6 v 5 5 H -4 -14 v 5 5 h -5 -5 v 5 5 h -5 -5 v 10 10 z m 70,0 h -5 v -5 -5 h 5 5 v 5 5 z"
       id="path1138" /><path
       style="fill:#fefe98;stroke-width:10"
       d="M 91,82 H 86 V 72 62 h 10 10 v 5 5 h 5 5 v -5 -5 h 5 5 v 5 5 h -5 -5 v 5 5 h -5 -5 v -5 -5 h -5 -5 v 5 5 z m 60,-20 h -5 V 52 42 h 5 5 V 52 62 Z M 96,42 H 86 v -5 -5 h 10 10 v 5 5 z"
       id="path1136" /><path
       style="fill:#fecb98;stroke-width:10"
       d="m 101,82 h -5 v -5 -5 h 5 5 v -5 -5 h 5 5 v 5 5 h 5 5 v -5 -5 h 10 10 v 10 10 h -15 -15 v -5 -5 h -5 -5 v 5 5 z M 81,72 h -5 v -5 -5 h 5 5 v 5 5 z"
       id="path1134" /><path
       style="fill:#32cbfe;stroke-width:10"
       d="m -9,-48 h -5 v -5 -5 h 5 5 v -5 -5 h 5 5 v -5 -5 h 5 5 v -5 -5 h 5 5 v 5 5 h -5 -5 v 5 5 H 11 6 v 5 5 H 1 -4 v 5 5 z"
       id="path1132" /><path
       style="fill:#0098fe;stroke-width:10"
       d="m 1,-38 h -5 v -10 -10 h 5 5 v -5 -5 h 5 5 v -5 -5 H 11 6 v -5 -5 h 5 5 v 5 5 h 10 10 v 5 5 H 26 16 v 5 5 H 11 6 v 10 10 z m -25,-20 h -10 v -5 -5 h 10 10 v 5 5 z"
       id="path1130" /><path
       style="fill:#3265fe;stroke-width:10"
       d="M 6,-28 H -4 v -5 -5 h 5 5 v -5 -5 h 5 5 v 10 10 z m -55,-30 h -5 v -10 -10 h 5 5 v 10 10 z m 40,0 h -5 v -5 -5 h 5 5 v -5 -5 h 5 5 v 5 5 H 1 -4 v 5 5 z m 40,-20 h -5 v -5 -5 h -5 -5 v -5 -5 h 5 5 v -5 -5 h 5 5 v 15 15 z"
       id="path1128" /><path
       style="fill:#65cb32;stroke-width:10"
       d="m -39,-78 h -5 v -5 -5 h 5 5 v 5 5 z m 20,0 h -5 v -5 -5 h 5 5 v -5 -5 h -5 -5 v -5 -5 h 5 5 v 5 5 h 5 5 v 5 5 h -5 -5 v 5 5 z"
       id="path1126" /><path
       style="fill:#3232fe;stroke-width:10"
       d="m -4,-18 h -10 v -5 -5 H -4 6 v 5 5 z m 25,0 h -5 v -5 -5 h 5 5 v -5 -5 h 5 5 v 5 5 h -5 -5 v 5 5 z"
       id="path1124" /><path
       style="fill:#989800;stroke-width:10"
       d="M 111,92 H 66 V 82 72 H 61 56 V 57 42 h 5 5 V 32 22 h 5 5 v -5 -5 h 20 20 v 5 5 h 20 20 v 5 5 H 136 116 V 27 22 H 96 76 v 10 10 h 30 30 v 5 5 H 101 66 v 10 10 h 5 5 v 5 5 h 40 40 v 5 5 z"
       id="path1122" /><path
       style="fill:#32cb32;stroke-width:10"
       d="m -29,-28 h -5 v -5 -5 h -5 -5 v -5 -5 h 10 10 v 10 10 z m 50,-20 h -5 v -5 -5 h 5 5 v 5 5 z"
       id="path1120" /><path
       style="fill:#0032cb;stroke-width:10"
       d="M 11,-18 H 6 v -5 -5 h 5 5 v -5 -5 h 5 5 v 5 5 h -5 -5 v 5 5 z"
       id="path1116" /><path
       style="fill:#329800;stroke-width:10"
       d="m -19,-38 h -5 v -5 -5 h -10 -10 v -5 -5 h 10 10 v 5 5 h 5 5 v 5 5 z M 36,-48 H 26 v -5 -5 h 5 5 v -5 -5 h 5 5 v 10 10 z m -85,-30 h -5 v -5 -5 h 5 5 v -5 -5 h 5 5 v -5 -5 h 5 5 v -5 -5 H 1 26 v 5 5 h -5 -5 v 5 5 H 11 6 v 5 5 H 1 -4 v 5 5 h -5 -5 v -5 -5 h 5 5 v -5 -5 h 5 5 v -5 -5 H -9 -24 v 5 5 h -5 -5 v 5 5 h -5 -5 v 5 5 z"
       id="path1114" /><path
       style="fill:#326500;stroke-width:10"
       d="m -19,-68 h -15 v -5 -5 h 15 15 v -5 -5 h 5 5 v -5 -5 h 5 5 v -5 -5 h 5 5 v 5 5 h -5 -5 v 5 5 H 11 6 v 5 5 H 1 -4 v 5 5 z"
       id="path1112" /><path
       style="fill:#006500;stroke-width:10"
       d="m -39,-28 h -5 v -5 -5 h -5 -5 v -10 -10 h 5 5 v 10 10 h 5 5 v 5 5 z m 20,0 h -5 v -5 -5 h 5 5 v -5 -5 h -5 -5 v -5 -5 h 5 5 v 5 5 h 5 5 v 5 5 h -5 -5 v 5 5 z M 31,-38 H 16 v -5 -5 H 11 6 v -5 -5 h 5 5 v -5 -5 h 5 5 v 5 5 h -5 -5 v 5 5 h 15 15 v 5 5 z m 10,-30 h -5 v -10 -10 h 5 5 v 10 10 z"
       id="path1110" /><path
       style="fill:#030303;stroke-width:10"
       d="m 1,-8 h -25 v -5 -5 h -5 -5 v -5 -5 h 10 10 v -5 -5 h 5 5 v 5 5 h -5 -5 v 5 5 H 6 26 v -5 -5 h 5 5 v -5 -5 h 5 5 v -25 -25 h -5 -5 v -5 -5 h 5 5 v 5 5 h 5 5 v 25 25 h -5 -5 v 5 5 h -5 -5 v 5 5 h -5 -5 v 5 5 z"
       id="path1108" /><path
       style="fill:#000000;stroke-width:10"
       d="M 121,102 H 76 v -5 -5 h 40 40 v -5 -5 h -5 -5 V 72 62 h -5 -5 V 52 42 h 5 5 v 10 10 h 5 5 V 47 32 h 5 5 v 35 35 z"
       id="path1106" /></g></svg>
