<?xml version="1.0" encoding="UTF-8" standalone="no"?>
<svg
   id="svg620"
   width="22"
   version="1.1"
   height="22"
   sodipodi:docname="edit-cut.svg"
   inkscape:version="1.2.2 (b0a8486541, 2022-12-01)"
   xml:space="preserve"
   xmlns:inkscape="http://www.inkscape.org/namespaces/inkscape"
   xmlns:sodipodi="http://sodipodi.sourceforge.net/DTD/sodipodi-0.dtd"
   xmlns="http://www.w3.org/2000/svg"
   xmlns:svg="http://www.w3.org/2000/svg"
   xmlns:rdf="http://www.w3.org/1999/02/22-rdf-syntax-ns#"
   xmlns:cc="http://creativecommons.org/ns#"
   xmlns:dc="http://purl.org/dc/elements/1.1/"><sodipodi:namedview
     pagecolor="#ffffff"
     bordercolor="#666666"
     borderopacity="1"
     objecttolerance="10"
     gridtolerance="10"
     guidetolerance="10"
     inkscape:pageopacity="0"
     inkscape:pageshadow="2"
     inkscape:window-width="1920"
     inkscape:window-height="1010"
     id="namedview313"
     showgrid="true"
     inkscape:zoom="22.627417"
     inkscape:cx="4.7729708"
     inkscape:cy="10.915961"
     inkscape:window-x="0"
     inkscape:window-y="0"
     inkscape:window-maximized="1"
     inkscape:current-layer="svg620"
     inkscape:showpageshadow="2"
     inkscape:pagecheckerboard="0"
     inkscape:deskcolor="#d1d1d1"><inkscape:grid
       type="xygrid"
       id="grid4713"
       originx="6.0817117e-07"
       originy="6.0000004" /></sodipodi:namedview><metadata
     id="metadata624"><rdf:RDF><cc:Work
         rdf:about=""><dc:format>image/svg+xml</dc:format><dc:type
           rdf:resource="http://purl.org/dc/dcmitype/StillImage" /></cc:Work></rdf:RDF></metadata><defs
     id="defs2" /><style
     id="current-color-scheme">
      .ColorScheme-Text {
        color:#232629;
      }
      .ColorScheme-Highlight {
        color:#3daee9;
      }
      </style><path
     style="fill:currentColor;stroke-width:1"
     d="m 12.000001,14 v 5 h 2 v 1 h 3 v -1 h 1 v -3 h -1 v -2 z m 3,3 h 1 v 1 h -1 z M 6.0000002,14 v 1 h -1 v 1 h -1 v 3 h 2 v 1 H 9.0000006 V 19 H 10.000001 V 15 H 9.0000006 v -1 z m 1,3 h 1 v 1 h -1 z"
     id="rect338"
     class="ColorScheme-Highlight"
     sodipodi:nodetypes="cccccccccccccccccccccccccccccccccccc" /><path
     style="fill:#fefefe;stroke-width:1"
     d="M 9.0000009,11.5 V 11 h 0.5 0.5000001 v 0.5 0.5 h -0.5000001 -0.5 z m -1,-2 V 9 h 0.5 0.5 V 9.5 10 h -0.5 -0.5 z m 4.0000001,0 V 9 h 0.5 0.5 V 9.5 10 h -0.5 -0.5 z M 7.0000009,7.5 V 7 h 0.5 0.5 V 7.5 8 h -0.5 -0.5 z m 6.0000001,0 V 7 h 0.5 0.5 V 7.5 8 h -0.5 -0.5 z M 6.0000009,5.5 V 5 h 0.5 0.5 V 5.5 6 h -0.5 -0.5 z m 8.0000001,0 V 5 h 0.5 0.5 V 5.5 6 h -0.5 -0.5 z M 5.0000009,3.5 V 3 h 0.5 0.5 V 3.5 4 h -0.5 -0.5 z m 10.0000001,0 V 3 h 0.5 0.5 V 2.5 2 h 0.5 0.5 V 2.5 3 h -0.5 -0.5 V 3.5 4 h -0.5 -0.5 z"
     id="path338" /><path
     style="opacity:0.5;fill:#ededed;fill-opacity:1;stroke-width:1"
     d="M 5.0000002,16.5 V 16 h 0.5 0.5 V 15.5 15 h 0.5 0.5 v 0.5 0.5 h -0.5 -0.5 v 0.5 0.5 h -0.5 -0.5 z m 8.0000008,0 V 16 h 0.5 0.5 V 15.5 15 h 0.5 0.5 v 0.5 0.5 h -0.5 -0.5 v 0.5 0.5 h -0.5 -0.5 z"
     id="path336" /><path
     style="fill:#cbcbcb;stroke-width:1"
     d="M 9.0000009,14.5 V 14 h 0.5 0.5000001 v -1 -1 h 0.5 0.5 v 1 1 h -0.5 -0.5 v 0.5 0.5 h -0.5000001 -0.5 z m 0,-4 V 10 h 0.5 0.5000001 v 0.5 0.5 h -0.5000001 -0.5 z m 3.0000001,0 V 10 h 0.5 0.5 v 0.5 0.5 h -0.5 -0.5 z M 8.0000009,8.5 V 8 h 0.5 0.5 V 8.5 9 h -0.5 -0.5 z m 5.0000001,0 V 8 h 0.5 0.5 V 8.5 9 h -0.5 -0.5 z M 7.0000009,6.5 V 6 h 0.5 0.5 V 6.5 7 h -0.5 -0.5 z m 7.0000001,0 V 6 h 0.5 0.5 V 6.5 7 h -0.5 -0.5 z M 6.0000009,4.5 V 4 h 0.5 0.5 V 4.5 5 h -0.5 -0.5 z m 9.0000001,0 V 4 h 0.5 0.5 V 4.5 5 h -0.5 -0.5 z"
     id="path334" /><path
     style="fill:#b1b1b1;stroke-width:1"
     d="M 10.000001,14.5 V 14 h 0.5 0.5 V 13.5 13 h 0.5 0.5 v 0.5 0.5 h -0.5 -0.5 v 0.5 0.5 h -0.5 -0.5 z M 5.0000009,2.5 V 2 h 0.5 0.5 V 2.5 3 h -0.5 -0.5 z"
     id="path332" /><path
     style="fill:#bcbcbc;stroke-width:1;fill-opacity:1;opacity:0.5"
     d="M 5.0000009,17.5 V 17 h 0.5 0.5 v 0.5 0.5 h -0.5 -0.5 z m 8.0000001,0 V 17 h 0.5 0.5 v 0.5 0.5 h -0.5 -0.5 z m -6.0000001,-2 V 15 h 1 1 v 0.5 0.5 h -1 -1 z m 6.0000001,0 V 15 h 0.5 0.5 v 0.5 0.5 h -0.5 -0.5 z m 2,0 V 15 h 0.5 0.5 v 0.5 0.5 h -0.5 -0.5 z"
     id="path330" /><path
     style="opacity:0.5;fill:#707070;fill-opacity:1;stroke-width:1"
     d="M 3.9999994,17.5 V 16 h 0.5 0.5 V 15.5 15 h 0.5 0.5 V 14.5 14 h 1.5 1.5000002 v 0.5 0.5 h -1.5000002 -1.5 v 0.5 0.5 h -0.5 -0.5 v 1.5 1.5 h -0.5 -0.5 z m 8.0000016,-1 V 14 h 2.5 2.5 v 0.5 0.5 h -2 -2 v 2 2 h -0.5 -0.5 z"
     id="path326" /><path
     style="fill:#858585;stroke-width:1"
     d="m 9.0000009,13 v -1 h -0.5 -0.5 v -1 -1 h -0.5 -0.5 V 9 8 h -0.5 -0.5 V 7 6 h -0.5 -0.5 V 5 4 h -0.5 -0.5 V 3 2 h 0.5 0.5 V 1.5 1 h 0.5 0.5 V 1.5 2 h -0.5 -0.5 v 1 1 h 0.5 0.5 V 3.5 3 h 0.5 0.5 V 3.5 4 h -0.5 -0.5 v 1 1 h 0.5 0.5 V 5.5 5 h 0.5 0.5 V 5.5 6 h -0.5 -0.5 v 1 1 h 0.5 0.5 V 7.5 7 h 0.5 0.5 V 7.5 8 h -0.5 -0.5 v 1 1 h 0.5 0.5 V 9.5 9 h 0.5 0.5000001 V 9.5 10 h -0.5000001 -0.5 v 1 1 h 0.5 0.5000001 V 11.5 11 h 0.5 0.5 V 10 9 h 0.5 0.5 V 8 7 h 0.5 0.5 V 6 5 h 0.5 0.5 V 4 3 h 0.5 0.5 V 2 1 h 1 1 V 1.5 2 h -0.5 -0.5 V 2.5 3 h 0.5 0.5 V 3.5 4 h -0.5 -0.5 V 3.5 3 h -0.5 -0.5 v 1 1 h 0.5 0.5 V 5.5 6 h -0.5 -0.5 V 5.5 5 h -0.5 -0.5 v 1 1 h 0.5 0.5 V 7.5 8 h -0.5 -0.5 V 7.5 7 h -0.5 -0.5 v 1 1 h 0.5 0.5 V 9.5 10 h -0.5 -0.5 V 9.5 9 h -0.5 -0.5 v 1 1 h 0.5 0.5 v 0.5 0.5 h -0.5 -0.5 V 11.5 11 h -0.5 -0.5 v 0.5 0.5 h -0.5 -0.5 v 1 1 h -0.5000001 -0.5 z"
     id="path324" /><path
     style="fill:#464646;stroke-width:1;fill-opacity:1;opacity:0.5"
     d="M 6.0000009,18.5 V 18 h 1 1 v -1 -1 h 0.5 0.5 v 1.5 1.5 h -1.5 -1.5 z m 8.0000001,0 V 18 h 1 1 v -1 -1 h 0.5 0.5 v 1.5 1.5 h -1.5 -1.5 z"
     id="path322" /><path
     style="fill:#323232;stroke-width:1;fill-opacity:1;opacity:0.5"
     d="m 6.0000009,17 v -1 h 1 1 v 0.5 0.5 h -0.5 -0.5 v 0.5 0.5 h -0.5 -0.5 z m 8.0000001,0 v -1 h 1 1 v 0.5 0.5 h -0.5 -0.5 v 0.5 0.5 h -0.5 -0.5 z"
     id="path320" /><path
     style="fill:#000000;stroke-width:1"
     d="M 6.0000009,20.5 V 20 h -0.5 -0.5 V 19.5 19 h 0.5 0.5 v 0.5 0.5 h 1.5 1.5 V 19.5 19 h 0.5 0.5000001 v -2 -2 h 0.5 0.5 V 14.5 14 h 0.5 0.5 V 13.5 13 h -0.5 -0.5 v -1 -1 h -0.5 -0.5 V 10 9 h -0.5000001 -0.5 V 8 7 h -0.5 -0.5 V 6 5 h -0.5 -0.5 V 4 3 h -0.5 -0.5 V 2 1 h 0.5 0.5 v 1 1 h 0.5 0.5 v 1 1 h 0.5 0.5 v 1 1 h 0.5 0.5000001 v 1 1 h 0.5 0.5 v 1 1 h 0.5 0.5 v 0.5 0.5 h 0.5 0.5 v -1 -1 h 0.5 0.5 V 9 8 h 0.5 0.5 V 7 6 h 0.5 0.5 V 5 4 h 0.5 0.5 V 3 2 h 0.5 0.5 v 1 1 h -0.5 -0.5 v 1 1 h -0.5 -0.5 v 1 1 h -0.5 -0.5 v 1 1 h -0.5 -0.5 v 1 1 h -0.5 -0.5 v 1 1 h -0.5 -0.5 v 0.5 0.5 h -0.5 -0.5 v 2 2 h -0.5 -0.5 v 0.5 0.5 h -0.5000001 -0.5 v 0.5 0.5 h -1.5 -1.5 z m 8.0000001,0 V 20 h -0.5 -0.5 V 19.5 19 h 0.5 0.5 v 0.5 0.5 h 1.5 1.5 V 19.5 19 h 0.5 0.5 V 17.5 16 h -0.5 -0.5 V 15.5 15 h 0.5 0.5 v 0.5 0.5 h 0.5 0.5 v 1.5 1.5 h -0.5 -0.5 v 0.5 0.5 h -0.5 -0.5 v 0.5 0.5 h -1.5 -1.5 z"
     id="path318" /></svg>
