<?xml version="1.0" encoding="UTF-8" standalone="no"?>
<!-- Created with Inkscape (http://www.inkscape.org/) -->

<svg
   version="1.1"
   id="svg2"
   width="22"
   height="22"
   viewBox="0 0 22 22"
   sodipodi:docname="edit-find-replace.svg"
   xml:space="preserve"
   inkscape:version="1.2.2 (b0a8486541, 2022-12-01)"
   xmlns:inkscape="http://www.inkscape.org/namespaces/inkscape"
   xmlns:sodipodi="http://sodipodi.sourceforge.net/DTD/sodipodi-0.dtd"
   xmlns="http://www.w3.org/2000/svg"
   xmlns:svg="http://www.w3.org/2000/svg"><defs
     id="defs6"><inkscape:path-effect
       effect="fillet_chamfer"
       id="path-effect531"
       is_visible="true"
       lpeversion="1"
       nodesatellites_param="F,0,0,1,0,0,0,1 @ F,0,0,1,0,0,0,1 @ F,0,0,1,0,0,0,1 @ F,0,0,1,0,0,0,1 @ F,0,0,1,0,0,0,1 @ F,0,0,1,0,2,0,1 @ F,0,0,1,0,0,0,1 @ F,0,0,1,0,0,0,1 @ F,0,0,1,0,0,0,1 @ F,0,0,1,0,0,0,1 @ F,0,0,1,0,0,0,1 @ F,0,0,1,0,0,0,1 @ F,0,0,1,0,0,0,1 @ F,0,0,1,0,0,0,1 @ F,0,0,1,0,2,0,1 @ F,0,0,1,0,0,0,1"
       unit="px"
       method="auto"
       mode="F"
       radius="0"
       chamfer_steps="1"
       flexible="false"
       use_knot_distance="true"
       apply_no_radius="true"
       apply_with_radius="true"
       only_selected="false"
       hide_knots="false" /></defs><style
     id="current-color-scheme">.ColorScheme-Text { color:#232629; }
.ColorScheme-Highlight { color:#3daee9; }
.ColorScheme-NegativeText { color:#da4453; }
.ColorScheme-NeutralText { color:#f67400; }
.ColorScheme-PositiveText { color:#27ae60; }</style><sodipodi:namedview
     id="namedview4"
     pagecolor="#ffeee5"
     bordercolor="#000000"
     borderopacity="0.25"
     inkscape:showpageshadow="2"
     inkscape:pageopacity="0"
     inkscape:pagecheckerboard="0"
     inkscape:deskcolor="#d1d1d1"
     showgrid="true"
     inkscape:zoom="22.518632"
     inkscape:cx="9.9473185"
     inkscape:cy="13.944009"
     inkscape:window-width="1920"
     inkscape:window-height="1010"
     inkscape:window-x="0"
     inkscape:window-y="0"
     inkscape:window-maximized="1"
     inkscape:current-layer="svg2"><inkscape:grid
       type="xygrid"
       id="grid248"
       originx="3"
       originy="3" /></sodipodi:namedview><path
     style="fill:currentColor;stroke-width:1"
     d="M 5,8 V 9 H 9 V 8 Z m 4,1 v 1 h 1 V 9 Z m 1,1 v 4 h 1 v -4 z m 0,4 H 9 v 1 h 1 z M 9,15 H 5 v 1 H 9 Z M 5,15 V 14 H 4 v 1 z M 4,14 V 10 H 3 v 4 z M 4,10 H 5 V 9 H 4 Z"
     id="rect618"
     class="ColorScheme-Text"
     sodipodi:nodetypes="cccccccccccccccccccccccccccccccccccccccc" /><path
     style="fill:currentColor;stroke-width:1"
     d="m 19,9 h -1 v 3 h -2 v -2 h -1 v 1 h -1 v 1 h -1 v 1 h 1 v 1 h 1 v 1 h 1 v -2 h 2 v -1 h 1 z m -7,0 h 1 V 6 h 2 v 2 h 1 V 7 h 1 V 6 h 1 V 5 H 17 V 4 H 16 V 3 h -1 v 2 h -2 v 1 h -1 z"
     id="path883"
     class="ColorScheme-NeutralText"
     sodipodi:nodetypes="cccccccccccccccccccccccccccccccccccccccccc" /><path
     style="fill:currentColor;stroke-width:1"
     d="m 13,18 v -2 h -1 v -1 h -1 v -1 h -1 v 1 H 9 v 1 h 1 v 1 h 1 v 1 z"
     id="path1136"
     class="ColorScheme-Highlight"
     sodipodi:nodetypes="ccccccccccccccc" /><path
     id="path1061"
     style="fill:#ffffff;fill-opacity:1;stroke:none;stroke-width:1;stroke-linecap:round;stroke-linejoin:round;stroke-dasharray:none;paint-order:stroke fill markers;stop-color:#000000"
     d="M 6,12 V 11 H 7 V 10 H 5 v 2 z"
     sodipodi:nodetypes="ccccccc" /><path
     style="fill:#00ffff;fill-opacity:1;stroke:none;stroke-width:1;stroke-linecap:round;stroke-linejoin:round;stroke-dasharray:none;paint-order:stroke fill markers;stop-color:#000000"
     d="m 6,11 h 1 v 1 H 6 Z"
     id="path1115" /><path
     id="path1516"
     style="opacity:0.5;fill:currentColor;stroke-width:1"
     d="m 5,9 v 1 H 6 V 9 Z m 0,1 H 4 v 1 H 5 Z M 8,9 v 1 H 9 V 9 Z m 1,1 v 1 h 1 v -1 z m -5,3 v 1 h 1 v -1 z m 1,1 v 1 h 1 v -1 z m 4,-1 v 1 h 1 v -1 z m 0,1 H 8 v 1 h 1 z"
     class="ColorScheme-Text" /></svg>
